<svg width="33" height="28" viewBox="0 0 33 28" fill="none" xmlns="http://www.w3.org/2000/svg">
<path d="M32.4725 12.4447L20.5551 0.526922C20.2149 0.18673 19.7615 0 19.278 0C18.794 0 18.3409 0.186998 18.0007 0.526922L16.9187 1.60921C16.5787 1.94886 16.3915 2.40254 16.3915 2.88627C16.3915 3.36973 16.5787 3.8387 16.9187 4.17836L23.8711 11.1461H1.78279C0.786896 11.1461 0 11.9258 0 12.9219V14.452C0 15.4482 0.786896 16.3064 1.78279 16.3064H23.95L16.9189 23.3131C16.579 23.6533 16.3917 24.0946 16.3917 24.5784C16.3917 25.0615 16.579 25.5093 16.9189 25.8492L18.0009 26.928C18.3411 27.2682 18.7943 27.4536 19.2783 27.4536C19.7617 27.4536 20.2151 27.2658 20.5553 26.9256L32.4728 15.0082C32.8138 14.6669 33.0013 14.2113 33 13.7271C33.0011 13.2412 32.8138 12.7854 32.4725 12.4447Z" fill="#F3BF00"/>
</svg>
