<svg width="58" height="42" viewBox="0 0 58 42" fill="none" xmlns="http://www.w3.org/2000/svg">
<path d="M13.8677 14.0933L13.7638 14.0907C12.5126 14.0629 11.4735 15.048 11.4421 16.2989C11.4108 17.5497 12.3994 18.5892 13.6503 18.6206L13.7735 18.6235C18.6715 18.7183 22.6562 22.7827 22.6562 27.6836C22.6562 32.6807 18.5908 36.7461 13.5938 36.7461C8.59669 36.7461 4.53125 32.6807 4.53125 27.6836C4.53125 21.4421 6.01569 15.6826 8.94367 10.5651C11.1319 6.74018 13.3572 4.71981 13.3988 4.68243C14.332 3.85401 14.4197 2.42576 13.5934 1.48926C12.7654 0.551177 11.3339 0.461571 10.3956 1.28932C10.2861 1.38606 7.68296 3.70776 5.12054 8.12414C2.78445 12.1503 0 18.8118 0 27.6836C0 35.1792 6.09816 41.2774 13.5938 41.2774C21.0893 41.2774 27.1875 35.1792 27.1875 27.6836C27.1875 24.0993 25.8046 20.7172 23.2936 18.1602C20.7876 15.6084 17.4401 14.1642 13.8677 14.0933Z" fill="white"/>
<path d="M54.1061 18.1602C51.6 15.6083 48.2527 14.164 44.68 14.0932L44.5763 14.0906C43.3292 14.0629 42.286 15.048 42.2546 16.2988C42.2232 17.5497 43.2119 18.5891 44.4628 18.6205L44.586 18.6235C49.484 18.7184 53.4688 22.7828 53.4688 27.6836C53.4688 32.6807 49.4033 36.7461 44.4062 36.7461C39.4092 36.7461 35.3438 32.6807 35.3438 27.6836C35.3438 21.442 36.8282 15.6825 39.7561 10.5652C41.9443 6.74027 44.1696 4.7199 44.2112 4.68252C45.1445 3.85398 45.2321 2.42584 44.4058 1.48934C43.5779 0.551148 42.1463 0.461542 41.208 1.2894C41.0986 1.38614 38.4953 3.70784 35.9329 8.12423C33.597 12.1502 30.8125 18.8117 30.8125 27.6836C30.8125 35.1792 36.9107 41.2773 44.4062 41.2773C51.9018 41.2773 58 35.1792 58 27.6836C58 24.0993 56.6171 20.7171 54.1061 18.1602Z" fill="white"/>
</svg>
