<svg width="17" height="38" viewBox="0 0 17 38" fill="none" xmlns="http://www.w3.org/2000/svg">
<path d="M13.1878 34.4309C12.4408 34.5016 11.6907 34.3306 11.0452 33.9422C10.5736 33.4511 10.3475 32.7693 10.4307 32.0889C10.4482 31.5224 10.5148 30.9586 10.63 30.404C10.7415 29.7678 10.8855 29.1379 11.0618 28.5169L13.0217 21.6762C13.2238 21.001 13.3574 20.3066 13.4204 19.6038C13.4204 18.8456 13.52 18.3232 13.52 18.02C13.5617 16.6686 12.9929 15.3719 11.9753 14.4986C10.7236 13.5238 9.16496 13.0447 7.59044 13.1507C6.46211 13.1679 5.34248 13.3553 4.26853 13.7067C3.09481 14.0774 1.86014 14.521 0.564666 15.0378L0 17.2619C0.381963 17.1271 0.847141 16.9755 1.37855 16.8069C1.88555 16.6546 2.4111 16.5751 2.9398 16.571C3.68146 16.4895 4.42797 16.6743 5.04916 17.0933C5.47109 17.604 5.66906 18.2675 5.59726 18.9299C5.59541 19.4965 5.53418 20.0613 5.41456 20.6147C5.29823 21.2045 5.14879 21.8278 4.96608 22.4849L2.98961 29.3592C2.83032 29.9982 2.70286 30.6448 2.60765 31.2968C2.53 31.855 2.49118 32.418 2.49132 32.9817C2.48319 34.3423 3.09652 35.6301 4.1522 36.4693C5.42313 37.4593 7.00407 37.95 8.60343 37.851C9.72962 37.8744 10.852 37.7094 11.9253 37.3623C12.8665 37.0365 14.1233 36.5704 15.6957 35.9639L16.2273 33.8409C15.8013 34.0201 15.3627 34.1665 14.9151 34.2789C14.349 34.4101 13.7678 34.461 13.1878 34.4309Z" fill="white"/>
<path d="M15.6486 1.35599C14.7559 0.45341 13.5798 -0.0321749 12.3681 0.00165619C11.1571 -0.0284504 9.98205 0.456669 9.08753 1.35599C7.44789 2.91253 7.26478 5.63779 8.67874 7.4431C8.80476 7.60403 8.94135 7.7544 9.08753 7.89314C10.9555 9.73259 13.7806 9.73259 15.6485 7.89314C17.2881 6.32124 17.4599 3.58371 16.0322 1.77856C15.9135 1.62819 15.7852 1.48697 15.6486 1.35599Z" fill="white"/>
</svg>
