<svg width="60" height="60" viewBox="0 0 60 60" fill="none" xmlns="http://www.w3.org/2000/svg">
<path d="M30 0C13.419 0 0 13.4175 0 30C0 46.5807 13.4175 60 30 60C46.581 60 60 46.5825 60 30C60 13.419 46.5825 0 30 0ZM30 55.8139C15.7662 55.8139 4.18605 44.2339 4.18605 30C4.18605 15.7661 15.7662 4.18605 30 4.18605C44.2339 4.18605 55.8139 15.7661 55.8139 30C55.8139 44.2339 44.2339 55.8139 30 55.8139Z" fill="#E2E2E2"/>
<path d="M29.1123 37.96C27.4538 37.96 26.1111 39.3421 26.1111 41.0005C26.1111 42.6197 27.4143 44.0413 29.1123 44.0413C30.8104 44.0413 32.1529 42.6197 32.1529 41.0005C32.1529 39.3421 30.7708 37.96 29.1123 37.96Z" fill="#E2E2E2"/>
<path d="M29.6256 14.938C24.2945 14.938 21.8462 18.0972 21.8462 20.2296C21.8462 21.7697 23.1493 22.4805 24.2155 22.4805C26.3479 22.4805 25.4792 19.4397 29.5071 19.4397C31.4815 19.4397 33.0611 20.3086 33.0611 22.1251C33.0611 24.2574 30.8497 25.4816 29.5466 26.5872C28.4013 27.5743 26.9008 29.1935 26.9008 32.5896C26.9008 34.643 27.4537 35.2353 29.0727 35.2353C31.0076 35.2353 31.4025 34.3666 31.4025 33.6162C31.4025 31.5628 31.442 30.3781 33.6139 28.6801C34.6801 27.8509 38.0366 25.1655 38.0366 21.4536C38.0366 17.7417 34.6801 14.938 29.6256 14.938Z" fill="#E2E2E2"/>
</svg>
