<svg width="14" height="14" viewBox="0 0 14 14" fill="none" xmlns="http://www.w3.org/2000/svg">
<path d="M7.82081 7.00413L13.8221 1.00291C14.0537 0.779209 14.0601 0.410117 13.8364 0.178495C13.6127 -0.0531264 13.2436 -0.0595489 13.012 0.164147C13.0071 0.168827 13.0024 0.17361 12.9976 0.178495L6.99637 6.17972L0.99513 0.178461C0.763508 -0.0452348 0.394416 -0.0388123 0.170719 0.19281C-0.0475116 0.41876 -0.0475116 0.776954 0.170719 1.00291L6.17196 7.00413L0.170719 13.0054C-0.0569063 13.233 -0.0569063 13.6021 0.170719 13.8298C0.398378 14.0574 0.767471 14.0574 0.99513 13.8298L6.99637 7.82854L12.9976 13.8298C13.2292 14.0535 13.5983 14.047 13.822 13.8154C14.0402 13.5895 14.0402 13.2313 13.822 13.0054L7.82081 7.00413Z" fill="#C73D3A"/>
</svg>
