<svg width="19" height="19" viewBox="0 0 19 19" fill="none" xmlns="http://www.w3.org/2000/svg">
<path d="M9.50002 0C13.2943 0 16.3811 3.08683 16.3811 6.88104C16.3811 11.5898 10.2232 18.5025 9.96103 18.7945C9.71478 19.0687 9.28483 19.0682 9.03901 18.7945C8.77684 18.5025 2.61894 11.5898 2.61894 6.88104C2.61902 3.08683 5.70581 0 9.50002 0ZM9.50002 10.3431C11.409 10.3431 12.962 8.79002 12.962 6.88104C12.962 4.97206 11.409 3.41904 9.50002 3.41904C7.59108 3.41904 6.03805 4.9721 6.03805 6.88108C6.03805 8.79006 7.59108 10.3431 9.50002 10.3431Z" fill="#222020"/>
</svg>
