<svg width="18" height="18" viewBox="0 0 18 18" fill="none" xmlns="http://www.w3.org/2000/svg">
<g clip-path="url(#clip0)">
<path d="M10.5043 11.0278C10.0565 11.3264 9.53631 11.4842 9 11.4842C8.46373 11.4842 7.94355 11.3264 7.49573 11.0278L0.119848 6.1104C0.0789258 6.08312 0.0390586 6.05468 0 6.02543V14.0831C0 15.007 0.749707 15.7402 1.65702 15.7402H16.3429C17.2668 15.7402 18 14.9904 18 14.0831V6.02539C17.9608 6.05471 17.9209 6.08322 17.8799 6.11054L10.5043 11.0278Z" fill="#222020"/>
<path d="M0.704883 5.23273L8.08077 10.1502C8.35998 10.3363 8.67997 10.4294 8.99996 10.4294C9.31999 10.4294 9.64002 10.3363 9.91923 10.1502L17.2951 5.23273C17.7365 4.93864 18 4.44646 18 3.91525C18 3.00185 17.2569 2.25879 16.3435 2.25879H1.65646C0.743098 2.25882 0 3.00189 0 3.91613C0 4.44646 0.263531 4.93864 0.704883 5.23273Z" fill="#222020"/>
</g>
<defs>
<clipPath id="clip0">
<rect width="18" height="18" fill="white"/>
</clipPath>
</defs>
</svg>
