<svg width="12" height="12" viewBox="0 0 12 12" fill="none" xmlns="http://www.w3.org/2000/svg">
<path d="M9.54542 0.0908203H2.45446C1.14906 0.0908203 0.0908203 1.14905 0.0908203 2.45443V9.54531C0.0908203 10.8507 1.14906 11.9089 2.45446 11.9089H9.54542C10.8508 11.9089 11.9091 10.8507 11.9091 9.54531V2.45448C11.9091 1.14905 10.8509 0.0908203 9.54542 0.0908203ZM8.36358 1.86354H10.1363V3.63626H8.36358V1.86354ZM5.99994 3.63631C7.30534 3.63631 8.36358 4.69454 8.36358 5.99992C8.36358 7.3053 7.30534 8.36353 5.99994 8.36353C4.69454 8.36353 3.6363 7.3053 3.6363 5.99992C3.6363 4.69454 4.69454 3.63631 5.99994 3.63631ZM10.7273 9.54536C10.7273 10.1981 10.1981 10.7272 9.54542 10.7272H2.45446C1.80176 10.7272 1.27261 10.1981 1.27261 9.54536V5.40898H2.51352C2.15865 7.33465 3.43201 9.18339 5.3577 9.5383C7.2834 9.89321 9.13216 8.61982 9.48707 6.69415C9.52927 6.46523 9.54882 6.2327 9.54542 5.99992C9.54247 5.80162 9.52272 5.60398 9.48631 5.40903H10.7272V9.54536H10.7273Z" fill="#1E1E1E"/>
</svg>
