<svg width="36" height="36" viewBox="0 0 36 36" fill="none" xmlns="http://www.w3.org/2000/svg">
<g clip-path="url(#clip0)">
<path d="M21.0086 22.0566C20.113 22.6537 19.0726 22.9693 18 22.9693C16.9275 22.9693 15.8871 22.6537 14.9915 22.0566L0.239695 12.2218C0.157852 12.1672 0.0781172 12.1103 0 12.0518V28.1672C0 30.0149 1.49941 31.4813 3.31404 31.4813H32.6859C34.5336 31.4813 35.9999 29.9819 35.9999 28.1672V12.0518C35.9217 12.1104 35.8418 12.1674 35.7597 12.2221L21.0086 22.0566Z" fill="white"/>
<path d="M1.40977 10.4664L16.1615 20.3013C16.72 20.6736 17.3599 20.8597 17.9999 20.8597C18.64 20.8597 19.28 20.6736 19.8385 20.3013L34.5902 10.4664C35.473 9.87827 36 8.89389 36 7.83147C36 6.00468 34.5138 4.51855 32.6871 4.51855H3.31291C1.4862 4.51863 0 6.00475 0 7.83323C0 8.89389 0.527062 9.87827 1.40977 10.4664Z" fill="white"/>
</g>
<defs>
<clipPath id="clip0">
<rect width="36" height="36" fill="white"/>
</clipPath>
</defs>
</svg>
