<svg width="30" height="40" viewBox="0 0 30 40" fill="none" xmlns="http://www.w3.org/2000/svg">
<path d="M14.9998 0C22.9877 0 29.4863 6.49859 29.4863 14.4864C29.4863 24.3995 16.5223 38.9526 15.9704 39.5673C15.452 40.1447 14.5468 40.1437 14.0293 39.5673C13.4773 38.9526 0.513359 24.3995 0.513359 14.4864C0.513515 6.49859 7.01203 0 14.9998 0ZM14.9998 21.7749C19.0188 21.7749 22.2883 18.5053 22.2883 14.4864C22.2883 10.4675 19.0187 7.19797 14.9998 7.19797C10.981 7.19797 7.71148 10.4676 7.71148 14.4865C7.71148 18.5054 10.981 21.7749 14.9998 21.7749Z" fill="#F3BF00"/>
</svg>
