<svg width="70" height="70" viewBox="0 0 70 70" fill="none" xmlns="http://www.w3.org/2000/svg">
<g clip-path="url(#clip0)">
<path d="M27.7633 35.4004C27.2301 34.8659 26.3633 34.8659 25.8301 35.4004C25.2956 35.9336 25.2956 36.8004 25.8301 37.3337C26.3633 37.8682 27.2301 37.8682 27.7633 37.3337C28.2979 36.8004 28.2979 35.9336 27.7633 35.4004Z" fill="#1E1E1E"/>
<path d="M35 37.7344C32.7384 37.7344 30.8984 39.5743 30.8984 41.8359C30.8984 44.0975 32.7384 45.9375 35 45.9375C37.2616 45.9375 39.1016 44.0975 39.1016 41.8359C39.1016 39.5743 37.2616 37.7344 35 37.7344ZM35 43.2031C34.2461 43.2031 33.6328 42.5898 33.6328 41.8359C33.6328 41.0821 34.2461 40.4688 35 40.4688C35.7539 40.4688 36.3672 41.0821 36.3672 41.8359C36.3672 42.5898 35.7539 43.2031 35 43.2031Z" fill="#1E1E1E"/>
<path d="M35 30.8984C33.4718 30.8984 31.994 31.2073 30.608 31.8165C29.9168 32.1204 29.6028 32.9271 29.9065 33.6183C30.2103 34.3096 31.0171 34.6235 31.7084 34.3198C32.7454 33.864 33.8529 33.6328 35 33.6328C39.5232 33.6328 43.2031 37.3127 43.2031 41.8359C43.2031 46.3591 39.5232 50.0391 35 50.0391C30.4768 50.0391 26.7969 46.3591 26.7969 41.8359C26.7969 41.7892 26.7967 41.7435 26.7978 41.6968C26.8153 40.9419 26.2176 40.3158 25.4628 40.2983C24.7067 40.2794 24.0818 40.8784 24.0643 41.6333C24.0626 41.7014 24.0625 41.7679 24.0625 41.8359C24.0625 47.8669 28.9691 52.7734 35 52.7734C41.0309 52.7734 45.9375 47.8669 45.9375 41.8359C45.9375 35.805 41.0309 30.8984 35 30.8984Z" fill="#1E1E1E"/>
<path d="M35 10.3906C34.2449 10.3906 33.6328 11.0027 33.6328 11.7578V19.9609C33.6328 20.716 34.2449 21.3281 35 21.3281C35.7551 21.3281 36.3672 20.716 36.3672 19.9609V11.7578C36.3672 11.0027 35.7551 10.3906 35 10.3906Z" fill="#1E1E1E"/>
<path d="M19.7259 20.5267L13.9263 14.7271C13.3924 14.1932 12.5267 14.1932 11.9927 14.7271C11.4588 15.261 11.4588 16.1267 11.9927 16.6607L17.7923 22.4603C18.3262 22.9942 19.192 22.9943 19.7259 22.4603C20.2598 21.9264 20.2598 21.0607 19.7259 20.5267Z" fill="#1E1E1E"/>
<path d="M58.0072 14.7271C57.4733 14.1932 56.6076 14.1932 56.0736 14.7271L50.2739 20.5267C49.7401 21.0606 49.7401 21.9263 50.2739 22.4603C50.8077 22.9942 51.6735 22.9943 52.2076 22.4603L58.0072 16.6607C58.541 16.1268 58.541 15.2611 58.0072 14.7271Z" fill="#1E1E1E"/>
<path d="M69.6575 42.0697C60.9724 32.2371 48.0766 24.0625 35 24.0625C21.9216 24.0625 9.02589 32.2391 0.342468 42.0697C-0.157375 42.6357 -0.103782 43.4997 0.462097 43.9995C1.02811 44.4994 1.89218 44.4458 2.39188 43.8799C2.68323 43.55 2.98169 43.2213 3.28397 42.8947C10.0399 53.1027 22.2869 59.6094 35 59.6094C47.7131 59.6094 59.96 53.1027 66.716 42.8947C67.0183 43.2214 67.3167 43.5501 67.6081 43.8799C68.1063 44.444 68.9702 44.5009 69.5379 43.9995C70.1038 43.4997 70.1573 42.6356 69.6575 42.0697ZM35 56.875C22.9804 56.875 11.42 50.6298 5.23782 40.8816C10.1088 36.1087 21.3638 26.7969 35 26.7969C48.6363 26.7969 59.8911 36.1087 64.7622 40.8815C58.58 50.6298 47.0196 56.875 35 56.875Z" fill="#1E1E1E"/>
</g>
<defs>
<clipPath id="clip0">
<rect width="70" height="70" fill="white"/>
</clipPath>
</defs>
</svg>
