<svg width="61" height="61" viewBox="0 0 61 61" fill="none" xmlns="http://www.w3.org/2000/svg">
<g clip-path="url(#clip0)">
<path d="M42.2348 33.305C41.7706 33.305 41.3472 32.9927 41.2259 32.5225L39.6989 26.6043C39.555 26.0467 39.8903 25.4781 40.4479 25.3342C41.0055 25.1901 41.5743 25.5255 41.7181 26.0834L43.2452 32.0014C43.4124 32.6491 42.9057 33.305 42.2348 33.305Z" fill="#1E1E1E"/>
<path d="M50.7953 33.3048C50.3351 33.3048 49.9138 32.9979 49.7888 32.5321L48.8279 28.9526C48.6785 28.3963 49.0086 27.8245 49.5646 27.6751C50.1203 27.5257 50.6927 27.8556 50.8421 28.4118L51.803 31.9914C51.9774 32.6412 51.4704 33.3048 50.7953 33.3048Z" fill="#1E1E1E"/>
<path d="M56.8339 51.4847H17.8888C15.6521 51.4847 14.6572 48.5565 16.5459 47.2746L20.879 44.3159H53.9422C56.1116 44.3159 57.8718 42.5944 57.8718 40.4364V27.1255C57.8718 26.5497 57.4049 26.0828 56.8291 26.0828C56.2532 26.0828 55.7864 26.5497 55.7864 27.1255V40.4364C55.7864 41.2393 55.2617 41.9214 54.5323 42.1665L52.9707 36.3446C52.8213 35.7884 52.2498 35.4584 51.6939 35.6079C51.1376 35.7573 50.8081 36.3122 50.9575 36.8683L52.4018 42.2305H45.8938L44.3876 36.4103C44.2437 35.8526 43.6749 35.5255 43.1174 35.6697C42.5598 35.8136 42.2243 36.3695 42.3683 36.9271L43.74 42.2305H37.2184L30.9003 17.7627L32.7924 18.0656C33.36 18.1537 33.8943 17.7689 33.983 17.1999C34.0715 16.6308 33.6819 16.0999 33.1129 16.0114L14.5969 13.1316L12.7614 6.00364C12.6428 5.54314 12.2274 5.21338 11.7518 5.21338H1.61158C1.03573 5.21338 0.568848 5.68026 0.568848 6.25611C0.568848 6.83196 1.03573 7.29885 1.61158 7.29885H10.9438L19.3808 42.8423L15.3746 45.5641C11.8202 47.9767 13.6573 53.5702 17.8888 53.5702H22.8643C22.3256 54.3357 22.008 55.264 22.008 56.2653C22.008 58.8759 24.156 60.9997 26.7964 60.9997C29.4367 60.9997 31.5849 58.8759 31.5849 56.2653C31.5849 55.264 31.2672 54.3357 30.7285 53.5702H43.2639C42.7252 54.3357 42.4075 55.264 42.4075 56.2653C42.4075 58.8759 44.5556 60.9997 47.1959 60.9997C49.8363 60.9997 51.9843 58.8759 51.9843 56.2653C51.9843 55.264 51.6666 54.3357 51.1279 53.5702H56.8338C57.4096 53.5702 57.8765 53.1033 57.8765 52.5275C57.8765 51.9516 57.4098 51.4847 56.8339 51.4847ZM28.6565 17.405L35.0647 42.2305H28.6876L22.0127 16.3799L28.6565 17.405ZM15.1237 15.2996L19.7689 16.0308L26.5339 42.2305H21.3865L15.1237 15.2996ZM26.7964 58.9142C25.3059 58.9142 24.0935 57.7259 24.0935 56.2653C24.0935 54.8045 25.306 53.6162 26.7964 53.6162C28.2867 53.6162 29.4993 54.8045 29.4993 56.2653C29.4994 57.7259 28.2868 58.9142 26.7964 58.9142ZM47.196 58.9142C45.7056 58.9142 44.4931 57.7259 44.4931 56.2653C44.4931 54.8045 45.7057 53.6162 47.196 53.6162C48.6864 53.6162 49.8989 54.8045 49.8989 56.2653C49.8989 57.7259 48.6864 58.9142 47.196 58.9142Z" fill="#1E1E1E"/>
<path d="M5.27711 32.3954C4.70126 32.3954 4.23438 31.9285 4.23438 31.3527V29.7659C4.23438 29.19 4.70126 28.7231 5.27711 28.7231C5.85296 28.7231 6.31985 29.19 6.31985 29.7659V31.3527C6.31985 31.9285 5.85296 32.3954 5.27711 32.3954Z" fill="#1E1E1E"/>
<path d="M5.27711 39.2445C4.70126 39.2445 4.23438 38.7776 4.23438 38.2018V36.615C4.23438 36.0392 4.70126 35.5723 5.27711 35.5723C5.85296 35.5723 6.31985 36.0392 6.31985 36.615V38.2018C6.31985 38.7776 5.85309 39.2445 5.27711 39.2445Z" fill="#1E1E1E"/>
<path d="M9.51126 35.0269H7.91822C7.34237 35.0269 6.87549 34.56 6.87549 33.9841C6.87549 33.4083 7.34237 32.9414 7.91822 32.9414H9.51126C10.0871 32.9414 10.554 33.4083 10.554 33.9841C10.554 34.56 10.0872 35.0269 9.51126 35.0269Z" fill="#1E1E1E"/>
<path d="M2.63577 35.0269H1.04274C0.466885 35.0269 0 34.56 0 33.9841C0 33.4083 0.466885 32.9414 1.04274 32.9414H2.63577C3.21162 32.9414 3.67851 33.4083 3.67851 33.9841C3.67851 34.56 3.21162 35.0269 2.63577 35.0269Z" fill="#1E1E1E"/>
<path d="M48.5377 24.8909C41.6658 24.8909 36.0752 19.3079 36.0752 12.4454C36.0752 5.58293 41.6658 0 48.5377 0C55.4096 0 61.0002 5.58293 61.0002 12.4454C61.0002 19.3079 55.4094 24.8909 48.5377 24.8909ZM48.5377 2.08547C42.8158 2.08547 38.1607 6.73294 38.1607 12.4454C38.1607 18.1579 42.8158 22.8054 48.5377 22.8054C54.2596 22.8054 58.9147 18.1579 58.9147 12.4454C58.9147 6.73294 54.2596 2.08547 48.5377 2.08547Z" fill="#1E1E1E"/>
<path d="M45.6439 16.587L42.715 13.1056C42.3443 12.6649 42.401 12.0072 42.8417 11.6365C43.2824 11.2658 43.9402 11.3224 44.3109 11.7632L46.4888 14.3519L53.3994 7.07193C53.7959 6.65418 54.4557 6.63711 54.8736 7.03361C55.2912 7.43011 55.3084 8.09003 54.9119 8.50777L47.1981 16.6338C46.8037 17.0201 46.0434 17.1071 45.6439 16.587Z" fill="#1E1E1E"/>
</g>
<defs>
<clipPath id="clip0">
<rect width="61" height="61" fill="white"/>
</clipPath>
</defs>
</svg>
