<svg width="58" height="58" viewBox="0 0 58 58" fill="none" xmlns="http://www.w3.org/2000/svg">
<path d="M17.34 32.3632C17.1293 32.1525 16.837 32.0312 16.5391 32.0312C16.24 32.0312 15.9489 32.1525 15.7382 32.3632C15.5275 32.5739 15.4062 32.865 15.4062 33.1641C15.4062 33.462 15.5275 33.7542 15.7382 33.965C15.9489 34.1757 16.2411 34.2969 16.5391 34.2969C16.837 34.2969 17.1293 34.1757 17.34 33.965C17.5507 33.7542 17.6719 33.462 17.6719 33.1641C17.6719 32.865 17.5507 32.5739 17.34 32.3632Z" fill="#1E1E1E"/>
<path d="M58 33.4183C58 30.8724 56.1643 28.7485 53.7474 28.2972C54.3629 27.4417 54.7267 26.3937 54.7267 25.2618C54.7267 22.3886 52.3892 20.0509 49.5158 20.0509H36.7272L38.6139 14.4493C39.342 12.2877 39.168 9.98037 38.124 7.95241C37.0801 5.92446 35.3034 4.44218 33.121 3.77881L30.914 3.10785C30.3374 2.93249 29.7243 3.23937 29.5193 3.80622L26.0513 13.391C25.0567 16.1399 23.0951 18.4238 20.5277 19.8217L16.9658 21.7613C16.2493 20.7288 15.0562 20.0509 13.707 20.0509H3.96483C1.77862 20.0509 0 21.8295 0 24.0157V50.9763C0 53.1626 1.77862 54.9412 3.96483 54.9412H13.707C15.204 54.9412 16.5095 54.107 17.1841 52.8792L19.0601 53.615C21.3044 54.4952 23.6646 54.9414 26.0752 54.9414H46.672C49.5453 54.9414 51.8829 52.6039 51.8829 49.7305C51.8829 48.5914 51.5146 47.5374 50.8921 46.6789C53.2638 46.1918 55.0531 44.0881 55.0531 41.5744C55.0531 40.4159 54.6727 39.3448 54.0308 38.4785C56.3062 37.9201 58 35.8638 58 33.4183ZM52.7891 36.3636H41.2344C40.6088 36.3636 40.1016 36.8707 40.1016 37.4964C40.1016 38.122 40.6088 38.6292 41.2344 38.6292H49.8421C51.4661 38.6292 52.7874 39.9504 52.7874 41.5745C52.7874 43.1986 51.4661 44.5198 49.8421 44.5198H41.2344C40.6088 44.5198 40.1016 45.027 40.1016 45.6526C40.1016 46.2783 40.6088 46.7854 41.2344 46.7854H46.6719C48.2959 46.7854 49.6172 48.1067 49.6172 49.7307C49.6172 51.3547 48.2959 52.676 46.6719 52.676H26.0752C23.9488 52.676 21.8669 52.2824 19.8872 51.5059L17.6718 50.6368V36.958C17.6718 36.3323 17.1646 35.8252 16.539 35.8252C15.9133 35.8252 15.4062 36.3323 15.4062 36.958V50.9763C15.4062 51.9133 14.6439 52.6756 13.707 52.6756H3.96483C3.02788 52.6756 2.26562 51.9133 2.26562 50.9763V24.0157C2.26562 23.0788 3.02788 22.3165 3.96483 22.3165H4.53123V35.8988C4.53123 36.5244 5.03839 37.0316 5.66404 37.0316C6.28969 37.0316 6.79685 36.5244 6.79685 35.8988V22.3165H13.707C14.6439 22.3165 15.4062 23.0788 15.4062 24.0157V28.5188C15.4062 29.1444 15.9133 29.6516 16.539 29.6516C17.1646 29.6516 17.6718 29.1444 17.6718 28.5188V24.0157C17.6718 23.9961 17.6706 23.9769 17.6703 23.9574L21.6113 21.8114C24.6653 20.1485 26.9988 17.4318 28.1818 14.1618L31.2839 5.58824L32.4621 5.94644C34.0531 6.43015 35.3485 7.51085 36.1096 8.98939C36.8707 10.4679 36.9976 12.1501 36.4668 13.7261L34.0767 20.8221C33.9602 21.1678 34.0174 21.5484 34.2302 21.8446C34.4429 22.1408 34.7855 22.3165 35.1502 22.3165H49.5158C51.1398 22.3165 52.4611 23.6378 52.4611 25.2618C52.4611 26.8858 51.1398 28.2071 49.5158 28.2071H41.2344C40.6088 28.2071 40.1016 28.7143 40.1016 29.3399C40.1016 29.9656 40.6088 30.4727 41.2344 30.4727H45.4432C45.445 30.4727 45.4468 30.473 45.4486 30.473H52.7891C54.4131 30.473 55.7344 31.7943 55.7344 33.4183C55.7344 35.0423 54.4131 36.3636 52.7891 36.3636Z" fill="#1E1E1E"/>
<path d="M8.83592 43.0566C6.96203 43.0566 5.4375 44.5812 5.4375 46.4551C5.4375 48.329 6.96203 49.8535 8.83592 49.8535C10.7098 49.8535 12.2343 48.329 12.2343 46.4551C12.2343 44.5812 10.7098 43.0566 8.83592 43.0566ZM8.83592 47.5879C8.21129 47.5879 7.70312 47.0797 7.70312 46.4551C7.70312 45.8304 8.21129 45.3223 8.83592 45.3223C9.46055 45.3223 9.96873 45.8304 9.96873 46.4551C9.96873 47.0797 9.46055 47.5879 8.83592 47.5879Z" fill="#1E1E1E"/>
<path d="M5.66406 38.8398C5.03841 38.8398 4.53125 39.347 4.53125 39.9727V39.9903C4.53125 40.616 5.03841 41.1231 5.66406 41.1231C6.28971 41.1231 6.79687 40.616 6.79687 39.9903V39.9727C6.79687 39.347 6.28971 38.8398 5.66406 38.8398Z" fill="#1E1E1E"/>
</svg>
