<svg width="69" height="69" viewBox="0 0 69 69" fill="none" xmlns="http://www.w3.org/2000/svg">
<path d="M47.0478 43.2714C46.8325 42.6741 46.1738 42.3644 45.5766 42.5797C44.9793 42.7949 44.6697 43.4536 44.8849 44.0508C44.8902 44.0655 44.8958 44.08 44.9017 44.0945C45.9501 46.8305 46.026 48.9226 45.1086 49.8423C43.9959 50.9527 41.2243 50.6056 37.6929 48.9157C32.9651 46.4609 28.6676 43.2539 24.9685 39.4204C15.964 30.4148 12.2487 21.5782 14.5466 19.2803C15.2799 18.7012 16.233 18.4788 17.1469 18.6733C17.78 18.7199 18.3311 18.2442 18.3777 17.6111C18.4226 16.9991 17.9791 16.4597 17.3699 16.3857C15.7716 16.1029 14.1318 16.5689 12.9212 17.6502C8.70922 21.861 15.1479 32.845 23.343 41.0413C27.2258 45.0593 31.7375 48.4176 36.7008 50.9838C37.5996 51.4141 38.5259 51.7847 39.4735 52.0931L31.306 55.19C20.3996 51.0436 12.5483 41.3747 10.729 29.8493C10.6306 29.222 10.0423 28.7933 9.41505 28.8917C8.78782 28.9901 8.35904 29.5784 8.45747 30.2056C8.63795 31.3552 8.87935 32.5047 9.17479 33.629C11.8219 43.6587 18.7941 51.9908 28.1999 56.3648L14.757 61.4516C14.6954 61.3487 14.6178 61.2565 14.5271 61.178C11.1106 58.435 8.96701 54.4123 8.59542 50.0469L8.06202 43.5876C8.02006 42.9618 7.47862 42.4884 6.85269 42.5304C6.84077 42.5313 6.82884 42.5321 6.81706 42.5334C6.18423 42.5837 5.71191 43.1377 5.7622 43.7705C5.76234 43.7731 5.76263 43.7758 5.76292 43.7784L6.30551 50.2354C6.70957 54.9016 8.88625 59.2354 12.3878 62.346L2.79822 65.9762L4.52255 58.8996C4.673 58.2824 4.2948 57.6602 3.67763 57.5098C3.06047 57.3593 2.43827 57.7375 2.28782 58.3547L0.0450463 67.5511C-0.10612 68.1677 0.271221 68.7902 0.887955 68.9412C1.11413 68.9967 1.35166 68.982 1.56935 68.8996L44.1028 52.8058C44.1705 52.7728 44.2344 52.7327 44.2936 52.6863C45.2141 52.5449 46.0675 52.1193 46.7341 51.4689C47.8732 50.3297 48.8537 47.9811 47.0478 43.2714Z" fill="#1E1E1E"/>
<path d="M57.8964 40.3068C51.682 37.9804 44.9653 37.3281 38.4195 38.4158L34.3122 39.1055C33.6887 39.2253 33.2804 39.8278 33.4003 40.4513C33.5161 41.0537 34.0844 41.4591 34.6915 41.3724L38.7977 40.6884C44.9452 39.6663 51.2535 40.2793 57.0894 42.4656C57.2189 42.5115 57.3555 42.5345 57.4929 42.5335C58.1277 42.5345 58.6433 42.0208 58.6443 41.3858C58.6452 40.9051 58.3469 40.4748 57.8964 40.3068Z" fill="#1E1E1E"/>
<path d="M61.983 22.497C61.71 21.9237 61.024 21.6803 60.4506 21.9533L36.31 33.4488C35.7368 33.7217 35.4933 34.4075 35.7662 34.9809C35.7662 34.981 35.7663 34.9812 35.7663 34.9812C36.0392 35.5543 36.725 35.7979 37.2984 35.525C37.2985 35.525 37.2985 35.5249 37.2986 35.5249L61.4392 24.0294C62.0126 23.7563 62.256 23.0704 61.983 22.497Z" fill="#1E1E1E"/>
<path d="M27.931 7.80177C27.8046 7.17958 27.1978 6.77766 26.5756 6.90411C25.9534 7.03056 25.5515 7.63738 25.6779 8.25958C25.6806 8.27337 25.6838 8.28703 25.6871 8.30068C27.1422 14.8013 26.5425 21.5934 23.9708 27.7385L22.2994 31.7492C22.0578 32.3336 22.3336 33.0034 22.9167 33.2483C23.0564 33.307 23.2065 33.3371 23.3581 33.3368C23.8221 33.3368 24.2405 33.058 24.4192 32.6298L26.0918 28.6236C28.8471 22.0411 29.4898 14.7653 27.931 7.80177Z" fill="#1E1E1E"/>
<path d="M63.2406 41.3838C61.336 41.3838 59.792 42.9278 59.792 44.8324C59.792 46.7371 61.336 48.2811 63.2406 48.2811C65.1453 48.2811 66.6893 46.7371 66.6893 44.8324C66.6893 42.9278 65.1453 41.3838 63.2406 41.3838ZM63.2406 45.982C62.6058 45.982 62.0911 45.4673 62.0911 44.8324C62.0911 44.1976 62.6058 43.6829 63.2406 43.6829C63.8755 43.6829 64.3902 44.1976 64.3902 44.8324C64.3902 45.4673 63.8755 45.982 63.2406 45.982Z" fill="#1E1E1E"/>
<path d="M35.6513 9.19629C33.7466 9.19629 32.2026 10.7403 32.2026 12.6449C32.2026 14.5496 33.7466 16.0936 35.6513 16.0936C37.5559 16.0936 39.0999 14.5496 39.0999 12.6449C39.0999 10.7403 37.5559 9.19629 35.6513 9.19629ZM35.6513 13.7945C35.0164 13.7945 34.5017 13.2798 34.5017 12.6449C34.5017 12.0101 35.0164 11.4954 35.6513 11.4954C36.2861 11.4954 36.8008 12.0101 36.8008 12.6449C36.8008 13.2798 36.2861 13.7945 35.6513 13.7945Z" fill="#1E1E1E"/>
<path d="M25.3055 4.59821C26.5752 4.59821 27.6046 3.56886 27.6046 2.2991C27.6046 1.02934 26.5752 0 25.3055 0C24.0357 0 23.0063 1.02934 23.0063 2.2991C23.0063 3.56886 24.0357 4.59821 25.3055 4.59821Z" fill="#1E1E1E"/>
<path d="M57.4928 5.74756C56.858 5.74756 56.3433 6.26227 56.3433 6.89711V8.04666C56.3433 8.6815 56.858 9.19621 57.4928 9.19621C58.1277 9.19621 58.6424 8.6815 58.6424 8.04666V6.89711C58.6424 6.26227 58.1277 5.74756 57.4928 5.74756Z" fill="#1E1E1E"/>
<path d="M57.4928 0C56.858 0 56.3433 0.514712 56.3433 1.14955V2.2991C56.3433 2.93394 56.858 3.44866 57.4928 3.44866C58.1277 3.44866 58.6424 2.93394 58.6424 2.2991V1.14955C58.6424 0.514712 58.1277 0 57.4928 0Z" fill="#1E1E1E"/>
<path d="M60.9412 3.44873H59.7916C59.1568 3.44873 58.6421 3.96344 58.6421 4.59828C58.6421 5.23312 59.1568 5.74784 59.7916 5.74784H60.9412C61.576 5.74784 62.0907 5.23312 62.0907 4.59828C62.0907 3.96344 61.576 3.44873 60.9412 3.44873Z" fill="#1E1E1E"/>
<path d="M55.1936 3.44873H54.0441C53.4092 3.44873 52.8945 3.96344 52.8945 4.59828C52.8945 5.23312 53.4092 5.74784 54.0441 5.74784H55.1936C55.8285 5.74784 56.3432 5.23312 56.3432 4.59828C56.3432 3.96344 55.8285 3.44873 55.1936 3.44873Z" fill="#1E1E1E"/>
<path d="M49.4459 12.6211H43.674C43.0391 12.6211 42.5244 13.1358 42.5244 13.7706V19.5425C42.5244 20.1774 43.0391 20.6921 43.674 20.6921H49.4459C50.0807 20.6921 50.5954 20.1774 50.5954 19.5425V13.7706C50.5954 13.1358 50.0807 12.6211 49.4459 12.6211ZM48.2963 18.393H44.8235V14.9202H48.2963V18.393Z" fill="#1E1E1E"/>
<path d="M41.0713 22.2201C40.6493 21.7696 39.9469 21.7328 39.4802 22.1368L27.9847 32.4827C27.5131 32.9075 27.475 33.6341 27.8996 34.1059C28.3244 34.5775 29.051 34.6156 29.5228 34.191L41.0183 23.845C41.4817 23.4109 41.5054 22.6835 41.0713 22.2201Z" fill="#1E1E1E"/>
<path d="M62.091 26.4399C61.4561 26.4399 60.9414 26.9547 60.9414 27.5895V28.739C60.9414 29.3739 61.4561 29.8886 62.091 29.8886C62.7258 29.8886 63.2405 29.3739 63.2405 28.739V27.5895C63.2405 26.9547 62.7258 26.4399 62.091 26.4399Z" fill="#1E1E1E"/>
<path d="M66.9684 26.2419L66.1556 25.4292C65.699 24.9881 64.9713 25.0007 64.5302 25.4574C64.1 25.9028 64.1 26.6091 64.5302 27.0547L65.3429 27.8674C65.7996 28.3086 66.5272 28.2959 66.9684 27.8393C67.3987 27.3937 67.3987 26.6874 66.9684 26.2419Z" fill="#1E1E1E"/>
<path d="M67.8387 21.8413H66.6891C66.0543 21.8413 65.5396 22.356 65.5396 22.9909C65.5396 23.6257 66.0543 24.1404 66.6891 24.1404H67.8387C68.4735 24.1404 68.9882 23.6257 68.9882 22.9909C68.9882 22.356 68.4735 21.8413 67.8387 21.8413Z" fill="#1E1E1E"/>
<path d="M66.9405 18.1147C66.495 17.6844 65.7888 17.6844 65.3432 18.1147L64.5304 18.9274C64.0815 19.3764 64.0817 20.1042 64.5307 20.5531C64.7463 20.7685 65.0385 20.8897 65.3432 20.8897C65.6481 20.8897 65.9404 20.7684 66.1559 20.5529L66.9686 19.7401C67.4098 19.2835 67.3971 18.5557 66.9405 18.1147Z" fill="#1E1E1E"/>
<path d="M62.091 16.0938C61.4561 16.0938 60.9414 16.6085 60.9414 17.2433V18.3929C60.9414 19.0277 61.4561 19.5424 62.091 19.5424C62.7258 19.5424 63.2405 19.0277 63.2405 18.3929V17.2433C63.2405 16.6085 62.7258 16.0938 62.091 16.0938Z" fill="#1E1E1E"/>
<path d="M59.6515 18.9274L58.8388 18.1147C58.3821 17.6737 57.6544 17.6862 57.2133 18.1429C56.7831 18.5883 56.7831 19.2946 57.2133 19.7402L58.026 20.5529C58.4827 20.9941 59.2104 20.9814 59.6515 20.5247C60.0819 20.0792 60.0819 19.3729 59.6515 18.9274Z" fill="#1E1E1E"/>
<path d="M13.7534 4.97058C13.6181 4.55473 13.2584 4.25182 12.8257 4.18888L9.45179 3.69802L7.94703 0.641364C7.61164 0.0719048 6.87809 -0.117915 6.30863 0.217467C6.13361 0.320495 5.98776 0.466345 5.88473 0.641364L4.37307 3.69802L0.999133 4.18888C0.370759 4.27955 -0.0650653 4.86252 0.0256056 5.49089C0.0616728 5.74107 0.179214 5.97227 0.359982 6.14887L2.80048 8.52844L2.2257 11.8886C2.11535 12.5138 2.53264 13.1101 3.15785 13.2205C3.4096 13.2649 3.66882 13.2242 3.89485 13.1048L6.91243 11.5138L9.93 13.1002C10.492 13.3956 11.187 13.1797 11.4825 12.6177C11.6002 12.394 11.6407 12.1377 11.598 11.8886L11.0232 8.52844L13.4649 6.14887C13.7774 5.84294 13.8892 5.38628 13.7534 4.97058ZM8.98162 7.30417C8.7109 7.56785 8.58718 7.94777 8.65055 8.32037L8.93564 9.98148L7.44697 9.19633C7.11231 9.02059 6.71255 9.02059 6.37789 9.19633L4.88347 9.98033L5.16856 8.31922C5.23308 7.94806 5.11151 7.56871 4.84324 7.30417L3.63506 6.12818L5.30306 5.88562C5.67752 5.8313 6.00126 5.59608 6.16867 5.25682L6.91243 3.74745L7.65734 5.25682C7.8246 5.59579 8.14777 5.83087 8.5218 5.88562L10.1887 6.12818L8.98162 7.30417Z" fill="#1E1E1E"/>
<path d="M65.1049 57.6212H65.1003L64.6267 56.9108C61.9711 52.9395 57.7952 50.2392 53.0841 49.4467C52.4555 49.3571 51.8733 49.7939 51.7836 50.4224C51.697 51.0297 52.1023 51.598 52.7047 51.7136C56.1028 52.2904 59.1995 54.0168 61.4769 56.6038C59.5622 56.9483 57.8876 58.0983 56.8787 59.7617C55.6407 61.979 56.4346 64.78 58.6519 66.0181C60.8693 67.2562 63.6703 66.4623 64.9084 64.2449C65.3813 63.332 65.6366 62.322 65.6544 61.294C66.8775 63.0705 66.9754 65.3904 65.9062 67.2636C65.5823 67.8097 65.7623 68.5149 66.3084 68.8388C66.8544 69.1627 67.5597 68.9827 67.8835 68.4366C67.8939 68.4191 67.9038 68.4014 67.9133 68.3833C70.0181 64.6237 68.7783 59.873 65.1049 57.6212ZM62.9035 63.1229C62.29 64.2347 60.8914 64.6385 59.7798 64.0249C58.6682 63.4113 58.2642 62.0128 58.8778 60.9012C58.8812 60.895 58.8847 60.8887 58.8881 60.8825C59.5665 59.7717 60.7108 59.0271 62.0011 58.857C62.201 58.8515 62.3989 58.8975 62.5759 58.9903C63.5461 59.5318 63.5979 61.8791 62.9035 63.1229Z" fill="#1E1E1E"/>
</svg>
