<svg width="30" height="28" viewBox="0 0 30 28" fill="none" xmlns="http://www.w3.org/2000/svg">
<path d="M28.7674 5.09795H5.31106L4.9624 1.14248C4.90537 0.495635 4.37301 0 3.73528 0H1.23205C0.551605 0 0 0.561712 0 1.25462C0 1.94753 0.551605 2.50924 1.23205 2.50924H2.60889C3.36132 11.0456 1.41668 -11.0177 4.02592 18.5857C4.12648 19.7443 4.74127 21.0017 5.80036 21.856C3.89087 24.3392 5.63556 28 8.74167 28C11.3197 28 13.138 25.3817 12.2539 22.9018H18.9971C18.1142 25.3785 19.9286 28 22.5094 28C24.569 28 26.2447 26.2937 26.2447 24.1963C26.2447 22.0989 24.569 20.3926 22.5094 20.3926H8.75C7.81412 20.3926 6.99856 19.8176 6.64655 18.9799L26.3363 17.8015C26.8738 17.7693 27.3286 17.3853 27.4593 16.8533L29.9627 6.65685C30.1568 5.8662 29.569 5.09795 28.7674 5.09795ZM8.74167 25.4908C8.04081 25.4908 7.47055 24.91 7.47055 24.1963C7.47055 23.4825 8.04081 22.9018 8.74167 22.9018C9.44259 22.9018 10.0129 23.4825 10.0129 24.1963C10.0129 24.91 9.44259 25.4908 8.74167 25.4908ZM22.5093 25.4908C21.8084 25.4908 21.2382 24.91 21.2382 24.1963C21.2382 23.4825 21.8084 22.9018 22.5093 22.9018C23.2103 22.9018 23.7805 23.4825 23.7805 24.1963C23.7805 24.91 23.2103 25.4908 22.5093 25.4908ZM25.2883 15.3507L6.31489 16.4861L5.53225 7.60713H27.1894L25.2883 15.3507Z" fill="white"/>
</svg>
