<svg width="86" height="86" viewBox="0 0 86 86" fill="none" xmlns="http://www.w3.org/2000/svg">
<g clip-path="url(#clip0)">
<path d="M85.8423 78.9174C85.4499 78.0769 84.4519 77.7127 83.6101 78.1044L80.1012 79.7408L73.6915 65.995C78.5875 62.8082 80.5283 56.4064 77.9898 50.9619L63.1003 19.0316C62.912 18.6274 62.5708 18.3151 62.1522 18.1628C61.7343 18.0106 61.2724 18.0303 60.8682 18.2193L42.9999 26.5507L25.1323 18.2193C24.7288 18.031 24.2669 18.0106 23.8483 18.1628C23.4297 18.3151 23.0885 18.6274 22.9002 19.0316L8.01076 50.9619C5.47221 56.4064 7.41237 62.8082 12.309 65.995L5.89935 79.7408L2.39039 78.1044C1.54924 77.7127 0.549964 78.0762 0.157602 78.9174C-0.234105 79.7579 0.129388 80.7571 0.970541 81.1495L11.0335 85.8415C11.2632 85.9491 11.5046 85.9996 11.7421 85.9996C12.3746 85.9996 12.9809 85.64 13.2657 85.0292C13.6574 84.1887 13.2939 83.1894 12.4534 82.797L8.94377 81.1607L15.3548 67.4135C16.4925 67.76 17.6538 67.9312 18.8034 67.9312C23.2985 67.9312 27.6112 65.3796 29.6327 61.0445L42.9999 32.3791L56.3672 61.0445C58.3887 65.3802 62.7014 67.9312 67.1965 67.9312C68.346 67.9312 69.5074 67.76 70.6458 67.4135L77.0561 81.1607L73.5471 82.797C72.706 83.1894 72.3425 84.1887 72.7342 85.0292C73.0196 85.6407 73.6252 85.9996 74.2577 85.9996C74.4952 85.9996 74.7373 85.9484 74.967 85.8415L85.0293 81.1495C85.8705 80.7571 86.2346 79.7579 85.8423 78.9174ZM26.5889 59.6247C24.5917 63.9072 19.4831 65.7667 15.2006 63.7694C10.918 61.7728 9.05859 56.6642 11.0558 52.3817L17.0417 39.5446H35.9525L26.5889 59.6247ZM37.5187 36.1853H18.6078L25.2353 21.9736L40.7684 29.2166L37.5187 36.1853ZM60.7658 21.9736L67.3927 36.1853H48.4819L45.2327 29.2166L60.7658 21.9736ZM59.4122 59.6247L50.0487 39.5446H68.9589L74.9453 52.3817C76.9419 56.6642 75.0825 61.7728 70.7999 63.7694C66.5181 65.766 61.4088 63.9072 59.4122 59.6247Z" fill="#1E1E1E"/>
<path d="M43.002 14.3065C43.9291 14.3065 44.6816 13.5546 44.6816 12.6268V1.68066C44.6816 0.752899 43.9291 0.000976562 43.002 0.000976562C42.0742 0.000976562 41.3223 0.752899 41.3223 1.68066V12.6268C41.3223 13.5546 42.0742 14.3065 43.002 14.3065Z" fill="#1E1E1E"/>
<path d="M43.002 21.0254C43.4435 21.0254 43.8766 20.8456 44.1889 20.5326C44.5019 20.2203 44.6816 19.7873 44.6816 19.3457C44.6816 18.9035 44.5019 18.4704 44.1889 18.1581C43.8766 17.8451 43.4435 17.666 43.002 17.666C42.5597 17.666 42.1267 17.8451 41.8144 18.1581C41.502 18.4704 41.3223 18.9035 41.3223 19.3457C41.3223 19.7873 41.5014 20.2203 41.8144 20.5326C42.1267 20.8456 42.5597 21.0254 43.002 21.0254Z" fill="#1E1E1E"/>
<path d="M49.5509 17.1328C49.9807 17.1328 50.4105 16.9688 50.7385 16.6407L56.4495 10.9298C57.1049 10.2743 57.1049 9.21072 56.4495 8.5546C55.7933 7.89847 54.7298 7.89847 54.0736 8.5546L48.3627 14.2655C47.7072 14.921 47.7072 15.9846 48.3627 16.6407C48.6908 16.9688 49.1205 17.1328 49.5509 17.1328Z" fill="#1E1E1E"/>
<path d="M35.2631 16.6407C35.5912 16.9688 36.0209 17.1328 36.4513 17.1328C36.8811 17.1328 37.3109 16.9688 37.6389 16.6407C38.2944 15.9852 38.2944 14.9217 37.6389 14.2655L31.928 8.5546C31.2719 7.89847 30.2083 7.89847 29.5522 8.5546C28.8967 9.21072 28.8967 10.2743 29.5522 10.9304L35.2631 16.6407Z" fill="#1E1E1E"/>
<path d="M60.6422 44.3699L60.6173 44.3154C60.2249 43.4749 59.2256 43.1101 58.3851 43.5025C57.544 43.8942 57.1798 44.8935 57.5715 45.734L57.5965 45.7878C57.8819 46.3993 58.4875 46.7589 59.1207 46.7589C59.3575 46.7589 59.599 46.7083 59.8286 46.6014C60.6698 46.2097 61.0339 45.2104 60.6422 44.3699Z" fill="#1E1E1E"/>
<path d="M63.2765 50.0239C62.8848 49.1834 61.8856 48.8192 61.0444 49.2116C60.2039 49.6033 59.8398 50.6033 60.2321 51.4438L63.8113 59.1191C64.096 59.7307 64.7023 60.0896 65.3348 60.0896C65.5723 60.0896 65.8138 60.039 66.0434 59.9314C66.8839 59.5397 67.2481 58.5404 66.8557 57.6999L63.2765 50.0239Z" fill="#1E1E1E"/>
</g>
<defs>
<clipPath id="clip0">
<rect width="86" height="86" fill="white"/>
</clipPath>
</defs>
</svg>
