<svg width="86" height="86" viewBox="0 0 86 86" fill="none" xmlns="http://www.w3.org/2000/svg">
<g clip-path="url(#clip0)">
<path d="M51.9848 33.9982C51.7958 33.9982 51.6055 33.9661 51.4218 33.9011L42.9997 30.9059L34.577 33.9011C34.0553 34.0868 33.4753 34.0028 33.0272 33.6774C32.579 33.3513 32.3199 32.8257 32.335 32.2719L32.581 23.3361L27.1299 16.2512C26.792 15.8129 26.6922 15.2348 26.8635 14.708C27.0347 14.1811 27.4547 13.773 27.9861 13.6162L36.5605 11.0887L41.614 3.71448C41.9276 3.25781 42.446 2.98486 42.9997 2.98486C43.5535 2.98486 44.0718 3.25781 44.3855 3.71448L49.439 11.0887L58.0133 13.6162C58.5448 13.773 58.9647 14.1811 59.136 14.708C59.3072 15.2348 59.2075 15.8122 58.8696 16.2512L53.4184 23.3367L53.6645 32.2719C53.6796 32.8257 53.4204 33.3519 52.9723 33.6774C52.6816 33.8886 52.3345 33.9982 51.9848 33.9982ZM31.2871 16.1455L35.6077 21.7614C35.8433 22.0671 35.966 22.4451 35.9555 22.8315L35.7606 29.9145L42.4368 27.5406C42.8009 27.4113 43.1985 27.4113 43.5627 27.5406L50.2382 29.9145L50.044 22.8315C50.0328 22.4451 50.1562 22.0671 50.3917 21.7614L54.7123 16.1455L47.9161 14.1417C47.5454 14.0328 47.2239 13.7992 47.0054 13.4803L42.9997 7.63552L38.994 13.4803C38.7756 13.7992 38.454 14.0328 38.0833 14.1417L31.2871 16.1455Z" fill="#1E1E1E"/>
<path d="M67.4845 18.5319C67.1348 18.5319 66.7877 18.4224 66.497 18.2111C66.0489 17.8856 65.7897 17.3601 65.8055 16.8063L65.9085 13.0414L63.612 10.056C63.2741 9.61707 63.175 9.03967 63.3456 8.5128C63.5169 7.98593 63.9368 7.57781 64.4683 7.421L68.0809 6.3561L70.2101 3.24932C70.5237 2.79199 71.042 2.51904 71.5958 2.51904C72.1496 2.51904 72.6679 2.79199 72.9816 3.24932L75.1107 6.3561L78.7227 7.421C79.2542 7.57781 79.6741 7.98593 79.846 8.5128C80.0166 9.03967 79.9175 9.61707 79.5796 10.056L77.2825 13.0414L77.3862 16.8063C77.4019 17.3601 77.1427 17.8856 76.6946 18.2111C76.2465 18.5365 75.6664 18.6198 75.1448 18.4348L71.5958 17.1731L68.0475 18.4348C67.8637 18.4998 67.6735 18.5319 67.4845 18.5319ZM71.5958 13.7107C71.7861 13.7107 71.9764 13.7428 72.1581 13.8078L73.9605 14.4482L73.908 12.5362C73.8969 12.1497 74.0202 11.7718 74.2558 11.466L75.4217 9.94973L73.5872 9.40908C73.2171 9.30016 72.8949 9.06658 72.6765 8.7477L71.5952 7.1697L70.5138 8.7477C70.2954 9.06658 69.9739 9.2995 69.6031 9.40908L67.7686 9.94973L68.9352 11.466C69.1701 11.7718 69.2934 12.1497 69.2823 12.5362L69.2298 14.4482L71.0322 13.8078C71.2153 13.7428 71.4049 13.7107 71.5958 13.7107Z" fill="#1E1E1E"/>
<path d="M18.5155 18.5319C18.3266 18.5319 18.1363 18.4998 17.9526 18.4348L14.4042 17.1731L10.8558 18.4348C10.3336 18.6205 9.7542 18.5365 9.3054 18.2111C8.85726 17.8856 8.59875 17.3601 8.61384 16.8063L8.71751 13.0414L6.42039 10.056C6.08249 9.61707 5.98341 9.03967 6.15466 8.5128C6.32591 7.98527 6.74583 7.57716 7.2773 7.42034L10.8893 6.35544L13.0184 3.24866C13.3321 2.79199 13.8504 2.51904 14.4042 2.51904C14.958 2.51904 15.4763 2.79199 15.7899 3.24866L17.9191 6.35544L21.5311 7.421C22.0626 7.57716 22.4825 7.98593 22.6537 8.5128C22.825 9.03967 22.7253 9.61707 22.388 10.056L20.0909 13.0408L20.1946 16.8056C20.2096 17.3594 19.9511 17.8856 19.503 18.2111C19.2123 18.4224 18.8659 18.5319 18.5155 18.5319ZM14.4042 13.7107C14.5945 13.7107 14.7854 13.7428 14.9672 13.8078L16.7696 14.4482L16.7171 12.5362C16.7059 12.1497 16.8293 11.7718 17.0642 11.466L18.2308 9.94973L16.3962 9.40908C16.0255 9.30016 15.704 9.06658 15.4855 8.7477L14.4042 7.1697L13.3229 8.7477C13.1044 9.06658 12.7829 9.2995 12.4122 9.40908L10.5776 9.94973L11.7442 11.466C11.9798 11.7718 12.1025 12.1497 12.092 12.5362L12.0395 14.4482L13.8419 13.8078C14.0236 13.7428 14.2139 13.7107 14.4042 13.7107Z" fill="#1E1E1E"/>
<path d="M43 71.9751C42.8911 71.9751 42.7802 71.9633 42.6726 71.9416C42.565 71.9213 42.4594 71.8878 42.3583 71.8458C42.256 71.8038 42.1582 71.7514 42.0676 71.691C41.9751 71.6306 41.8898 71.5604 41.8124 71.483C41.735 71.4056 41.6648 71.3203 41.6044 71.2278C41.5434 71.1372 41.4916 71.0395 41.4496 70.9371C41.4076 70.8361 41.3741 70.7304 41.3538 70.6228C41.3321 70.5152 41.3203 70.4043 41.3203 70.2954C41.3203 70.1865 41.3321 70.0756 41.3538 69.968C41.3741 69.8604 41.4076 69.7548 41.4496 69.6524C41.4916 69.5514 41.5434 69.4536 41.6044 69.363C41.6648 69.2705 41.735 69.1852 41.8124 69.1078C41.8898 69.0304 41.9751 68.9602 42.0676 68.8998C42.1582 68.8388 42.256 68.787 42.3583 68.745C42.4594 68.703 42.565 68.6708 42.6726 68.6492C42.8891 68.6059 43.1109 68.6059 43.3274 68.6492C43.435 68.6708 43.5407 68.703 43.6417 68.745C43.7441 68.787 43.8412 68.8388 43.9317 68.8998C44.0242 68.9602 44.1102 69.0304 44.1876 69.1078C44.265 69.1852 44.3352 69.2705 44.3956 69.363C44.456 69.4536 44.5085 69.5514 44.5505 69.6524C44.5924 69.7548 44.6259 69.8604 44.6456 69.968C44.6679 70.0756 44.6797 70.1865 44.6797 70.2954C44.6797 70.4043 44.6679 70.5159 44.6456 70.6228C44.6239 70.7304 44.5924 70.8361 44.5505 70.9371C44.5085 71.0395 44.456 71.1372 44.3956 71.2278C44.3352 71.3203 44.265 71.4056 44.1876 71.483C44.1102 71.5604 44.0242 71.6306 43.9317 71.691C43.8412 71.7514 43.7441 71.8038 43.6417 71.8458C43.5407 71.8878 43.435 71.9213 43.3274 71.9416C43.2198 71.9633 43.1089 71.9751 43 71.9751Z" fill="#1E1E1E"/>
<path d="M43 66.4324C42.0722 66.4324 41.3203 65.6805 41.3203 64.7527V37.0371C41.3203 36.11 42.0722 35.3574 43 35.3574C43.9278 35.3574 44.6797 36.11 44.6797 37.0371V64.7527C44.6797 65.6799 43.9278 66.4324 43 66.4324Z" fill="#1E1E1E"/>
<path d="M71.5134 55.7288C71.4255 55.7288 71.3383 55.7223 71.2503 55.7078C70.7031 55.6212 70.234 55.2708 69.9958 54.7702L66.9769 48.4195L60.6269 45.4007C60.1263 45.1632 59.7752 44.694 59.6886 44.1468C59.602 43.5996 59.791 43.0445 60.1932 42.664L65.2999 37.8309L66.2086 30.8582C66.2801 30.309 66.618 29.83 67.1115 29.5787C67.6055 29.3268 68.1908 29.3353 68.6776 29.6004L74.8525 32.9631L81.7642 31.6731C82.3088 31.5707 82.8685 31.7446 83.2602 32.1363C83.6519 32.528 83.8251 33.0877 83.7241 33.6323L82.4334 40.544L85.7968 46.7188C86.0612 47.2057 86.0697 47.7916 85.8178 48.285C85.5665 48.7784 85.0875 49.1163 84.5383 49.1879L77.5663 50.0966L72.7325 55.2033C72.413 55.5418 71.9708 55.7288 71.5134 55.7288ZM64.2822 43.4192L68.9591 45.6421C69.3075 45.8081 69.589 46.089 69.755 46.438L71.978 51.1143L75.5368 47.354C75.8026 47.0732 76.1569 46.8927 76.5401 46.8428L81.6743 46.1736L79.1974 41.6266C79.013 41.2874 78.9507 40.895 79.0216 40.5151L79.9716 35.4249L74.882 36.3756C74.5021 36.4458 74.1098 36.3841 73.7705 36.1991L69.2229 33.7229L68.5543 38.8571C68.5044 39.2403 68.324 39.5946 68.0432 39.8596L64.2822 43.4192Z" fill="#1E1E1E"/>
<path d="M45.9653 83.7102C45.9069 83.7102 45.8492 83.7076 45.7901 83.7017C44.8676 83.6059 44.1971 82.7805 44.2922 81.8579C45.3932 71.2076 50.5208 63.1169 54.6289 58.2051C59.065 52.8996 63.2603 50.0802 63.4361 49.9627C64.2084 49.449 65.251 49.6576 65.7654 50.4306C66.2791 51.2022 66.0698 52.2454 65.2976 52.7592C65.1381 52.8655 61.3339 55.4231 57.2055 60.3598C53.3986 64.9127 48.6469 72.3978 47.6339 82.2037C47.5446 83.0672 46.815 83.7102 45.9653 83.7102Z" fill="#1E1E1E"/>
<path d="M14.4879 55.7291C14.0306 55.7291 13.5884 55.5421 13.2682 55.2042L8.43514 50.0975L1.46243 49.1888C0.913247 49.1172 0.434271 48.7793 0.182973 48.2853C-0.0683254 47.7918 -0.0604519 47.2059 0.204625 46.7197L3.5673 40.5449L2.27734 33.6325C2.17499 33.088 2.34886 32.5283 2.74057 32.1366C3.13228 31.7449 3.69196 31.571 4.23655 31.6733L11.1482 32.9639L17.3231 29.6006C17.8099 29.3355 18.3959 29.3277 18.8893 29.579C19.3827 29.8303 19.7206 30.3092 19.7921 30.8584L20.7009 37.8311L25.8082 42.6642C26.2104 43.0454 26.3987 43.5998 26.3121 44.147C26.2255 44.6943 25.8744 45.1634 25.3745 45.4016L19.0238 48.4204L16.0056 54.7705C15.7674 55.2704 15.2983 55.6215 14.7511 55.7081C14.6631 55.7225 14.5752 55.7291 14.4879 55.7291ZM4.3271 46.1738L9.46132 46.8431C9.84451 46.893 10.1988 47.0734 10.4639 47.3542L14.0234 51.1145L16.2464 46.4383C16.4124 46.0892 16.6932 45.8084 17.0423 45.6424L21.7185 43.4194L17.9582 39.8599C17.6774 39.5948 17.497 39.2405 17.4471 38.8573L16.7778 33.7231L12.2309 36.2C11.8916 36.3844 11.4986 36.4467 11.1194 36.3758L6.0291 35.4258L6.97918 40.5154C7.0507 40.8953 6.98837 41.2883 6.80334 41.6268L4.3271 46.1738Z" fill="#1E1E1E"/>
<path d="M40.0371 83.7105C39.1867 83.7105 38.4577 83.0675 38.3685 82.2034C37.3548 72.3975 32.6037 64.913 28.7969 60.3601C24.6705 55.426 20.8642 52.8658 20.7041 52.7595C19.9319 52.2451 19.7226 51.2018 20.237 50.4302C20.7514 49.658 21.794 49.4487 22.5663 49.9631C22.7427 50.0805 26.94 52.9032 31.3735 58.2054C35.4815 63.1172 40.6092 71.2079 41.7102 81.8583C41.8053 82.7808 41.1348 83.6062 40.2116 83.7013C40.1532 83.7079 40.0948 83.7105 40.0371 83.7105Z" fill="#1E1E1E"/>
<path d="M56.1966 83.397C55.9624 83.397 55.7242 83.3477 55.4972 83.2441C54.6541 82.857 54.284 81.8603 54.6711 81.0165C57.2353 75.4256 61.5093 71.9757 64.643 70.0657C67.9637 68.0415 70.6617 67.2903 70.9583 67.2109C71.8552 66.972 72.7751 67.5048 73.0139 68.4011C73.2528 69.2974 72.72 70.2179 71.8237 70.4567C71.7994 70.4633 69.358 71.126 66.391 72.9343C63.6575 74.6002 59.9346 77.5981 57.7241 82.4174C57.442 83.0335 56.8331 83.397 56.1966 83.397Z" fill="#1E1E1E"/>
<path d="M31.3981 83.397C30.7616 83.397 30.1527 83.0335 29.8699 82.4174C27.6601 77.5981 23.9372 74.6002 21.2031 72.9343C18.2367 71.126 15.7946 70.4633 15.7703 70.4567C14.8741 70.2173 14.3413 69.2974 14.5808 68.4011C14.8196 67.5048 15.7401 66.972 16.6364 67.2109C16.9337 67.2903 19.6323 68.0428 22.9517 70.0657C26.0854 71.9757 30.3594 75.4256 32.9236 81.0165C33.3107 81.8603 32.9406 82.857 32.0969 83.2441C31.8698 83.3477 31.6323 83.397 31.3981 83.397Z" fill="#1E1E1E"/>
<path d="M78.2481 62.0628C77.3209 62.0628 76.5684 61.3108 76.5684 60.3831V58.9849C76.5684 58.0571 77.3209 57.3052 78.2481 57.3052C79.1758 57.3052 79.9278 58.0571 79.9278 58.9849V60.3831C79.9278 61.3108 79.1758 62.0628 78.2481 62.0628Z" fill="#1E1E1E"/>
<path d="M78.2481 69.6469C77.3209 69.6469 76.5684 68.8943 76.5684 67.9672V66.5684C76.5684 65.6413 77.3209 64.8887 78.2481 64.8887C79.1758 64.8887 79.9278 65.6413 79.9278 66.5684V67.9672C79.9278 68.8943 79.1758 69.6469 78.2481 69.6469Z" fill="#1E1E1E"/>
<path d="M82.7381 65.1553H81.3398C80.4127 65.1553 79.6602 64.4027 79.6602 63.4756C79.6602 62.5478 80.4127 61.7959 81.3398 61.7959H82.7381C83.6658 61.7959 84.4178 62.5478 84.4178 63.4756C84.4178 64.4027 83.6658 65.1553 82.7381 65.1553Z" fill="#1E1E1E"/>
<path d="M75.156 65.1553H73.7578C72.8301 65.1553 72.0781 64.4027 72.0781 63.4756C72.0781 62.5478 72.8301 61.7959 73.7578 61.7959H75.156C76.0838 61.7959 76.8357 62.5478 76.8357 63.4756C76.8357 64.4027 76.0838 65.1553 75.156 65.1553Z" fill="#1E1E1E"/>
<path d="M7.75196 62.0628C6.82419 62.0628 6.07227 61.3108 6.07227 60.3831V58.9849C6.07227 58.0571 6.82419 57.3052 7.75196 57.3052C8.67973 57.3052 9.43166 58.0571 9.43166 58.9849V60.3831C9.43166 61.3108 8.67973 62.0628 7.75196 62.0628Z" fill="#1E1E1E"/>
<path d="M7.75196 69.6469C6.82419 69.6469 6.07227 68.8943 6.07227 67.9672V66.5684C6.07227 65.6413 6.82419 64.8887 7.75196 64.8887C8.67973 64.8887 9.43166 65.6413 9.43166 66.5684V67.9672C9.43166 68.8943 8.67973 69.6469 7.75196 69.6469Z" fill="#1E1E1E"/>
<path d="M12.2439 65.1553H10.8457C9.91794 65.1553 9.16602 64.4027 9.16602 63.4756C9.16602 62.5478 9.91794 61.7959 10.8457 61.7959H12.2439C13.1717 61.7959 13.9236 62.5478 13.9236 63.4756C13.9236 64.4027 13.1717 65.1553 12.2439 65.1553Z" fill="#1E1E1E"/>
<path d="M4.6606 65.1553H3.26173C2.33461 65.1553 1.58203 64.4027 1.58203 63.4756C1.58203 62.5478 2.33461 61.7959 3.26173 61.7959H4.6606C5.58837 61.7959 6.3403 62.5478 6.3403 63.4756C6.3403 64.4027 5.58837 65.1553 4.6606 65.1553Z" fill="#1E1E1E"/>
</g>
<defs>
<clipPath id="clip0">
<rect width="86" height="86" fill="white"/>
</clipPath>
</defs>
</svg>
