<svg width="86" height="86" viewBox="0 0 86 86" fill="none" xmlns="http://www.w3.org/2000/svg">
<g clip-path="url(#clip0)">
<path d="M58.0942 47.3417C61.3111 45.8515 64.5141 44.7644 67.6605 44.0985C68.5681 43.9066 69.148 43.0151 68.9561 42.1076C68.7641 41.2001 67.8737 40.6199 66.965 40.8121C63.3229 41.5827 59.6241 42.8715 55.9247 44.6527C53.8582 42.1881 51.4925 39.6111 48.9402 37.0588C46.228 34.3468 43.4876 31.8437 40.8843 29.6887C43.1371 26.8401 44.9758 23.6507 46.367 20.1601C48.5359 14.7178 49.6358 8.49992 49.6358 1.67871C49.6358 0.75102 48.8836 -0.000976562 47.9561 -0.000976562C47.0286 -0.000976562 46.2764 0.75102 46.2764 1.67871C46.2764 12.1889 43.5815 20.8873 38.2596 27.5996C37.2553 26.8335 36.2816 26.1294 35.3517 25.5024C30.3736 22.1449 27.4087 21.3579 25.7515 22.9557C25.7397 22.9666 25.7275 22.9773 25.716 22.9886C25.7144 22.9903 25.7127 22.9918 25.711 22.9933C25.71 22.9943 25.7091 22.9955 25.7081 22.9963C25.2837 23.4218 25.0217 23.9363 24.9224 24.5502L0.130698 83.67C-0.133013 84.2988 0.0097609 85.025 0.491999 85.5072C0.813491 85.8285 1.24316 85.9992 1.68021 85.9992C1.89891 85.9992 2.11962 85.9565 2.32941 85.8685C2.33411 85.8665 2.32941 85.8685 2.33411 85.8665L61.4492 61.0763C62.0097 60.9856 62.4859 60.7565 62.8885 60.3942C62.9178 60.3699 62.9451 60.344 62.9725 60.3181C62.9833 60.3075 62.9949 60.2988 63.0054 60.288C63.0071 60.2864 63.0085 60.2845 63.01 60.283C63.0216 60.2716 63.0323 60.2592 63.0434 60.2472C64.6409 58.5899 63.854 55.6251 60.4965 50.6473C59.7868 49.5952 58.9804 48.4876 58.0942 47.3417ZM13.3225 74.0329C12.9719 76.2187 12.1924 77.6555 11.8173 78.2468L4.81652 81.1825L11.9265 64.2281C13.3176 67.7153 13.7998 71.0559 13.3225 74.0329ZM23.6586 68.3495C22.9813 72.2101 21.1851 74.0711 20.6743 74.5326L16.2481 76.3887C17.2321 72.8859 17.4908 67.3256 13.6881 60.027L18.7218 48.0241C23.9445 57.9259 24.3363 64.4868 23.6586 68.3495ZM29.6502 70.7683L26.0298 72.2867C26.3748 71.4151 26.679 70.4224 26.8994 69.2976C28.2438 62.4355 26.0491 53.9511 20.3797 44.0708L22.1971 39.7371C23.6356 41.468 25.2746 43.9178 25.9384 45.4625C26.2117 46.0986 26.8313 46.4795 27.4824 46.4795C27.7036 46.4795 27.9287 46.4353 28.1449 46.3426C28.9971 45.9763 29.391 44.9886 29.0248 44.1362C28.0399 41.8444 25.5424 38.2784 23.6319 36.3157L26.4089 29.6935C26.8953 30.5855 27.4978 31.5627 28.2204 32.634C28.718 33.3717 29.263 34.1365 29.8492 34.9226C35.5949 43.6412 35.4649 52.5652 34.3417 58.5195C33.1473 64.8528 30.5896 69.4895 29.6502 70.7683ZM42.5927 65.341L34.6185 68.685C35.77 66.1594 36.9446 62.8439 37.6427 59.1423C38.4224 55.0079 38.7652 49.5711 37.3225 43.7001C38.1182 44.5406 38.9367 45.383 39.7764 46.2227C42.2888 48.735 44.8248 51.0662 47.2543 53.1094C47.0135 61.0397 43.3761 64.6534 42.5927 65.341ZM48.3826 62.9131C49.2817 61.0528 50.0757 58.6554 50.4298 55.661C51.4436 56.435 52.4268 57.1462 53.365 57.7789C54.4368 58.5019 55.4139 59.104 56.3062 59.5905L48.3826 62.9131ZM54.2904 54.3346C50.6387 51.7473 46.3278 48.0228 42.1519 43.8469C37.9762 39.6712 34.2515 35.3603 31.6645 31.7087C29.1626 28.1775 28.4884 26.3743 28.3108 25.5933C29.0919 25.771 30.895 26.4452 34.4262 28.9469C34.9499 29.318 35.4881 29.7145 36.0364 30.1303C35.9186 30.2515 35.8024 30.374 35.6826 30.4937C35.0267 31.1497 35.0267 32.2132 35.6826 32.8693C36.0107 33.1972 36.4405 33.3613 36.8703 33.3613C37.3002 33.3613 37.7302 33.1972 38.058 32.8693C38.269 32.6584 38.4768 32.4445 38.6822 32.2287C41.2301 34.3349 43.9242 36.7939 46.5648 39.4346C48.8356 41.7053 50.9706 44.0152 52.8643 46.238C52.561 46.4064 52.2578 46.5778 51.9546 46.7528C51.1512 47.2167 50.8759 48.244 51.3398 49.0472C51.6509 49.5861 52.2155 49.8874 52.7961 49.8874C53.081 49.8874 53.3699 49.8147 53.6343 49.662C54.1006 49.3926 54.5672 49.1341 55.0336 48.8816C55.7635 49.8085 56.4407 50.7096 57.0523 51.573C59.5543 55.1042 60.2284 56.9073 60.406 57.6884C59.6246 57.5105 57.8214 56.8363 54.2904 54.3346Z" fill="#1E1E1E"/>
<path d="M30.3838 48.4646C30.003 47.6185 29.0088 47.2413 28.1627 47.622C27.343 47.9909 26.9634 48.9359 27.2869 49.7638C27.5412 50.4295 28.177 50.8438 28.8558 50.8438C29.0399 50.8438 29.227 50.8133 29.4107 50.7491C30.2862 50.4427 30.7478 49.4845 30.4412 48.6089C30.4253 48.5633 30.4036 48.5086 30.3838 48.4646Z" fill="#1E1E1E"/>
<path d="M62.7263 25.9832C63.0544 26.311 63.4842 26.4752 63.914 26.4752C64.344 26.4752 64.7737 26.311 65.1017 25.9832C68.8547 22.2302 74.935 20.5102 79.3742 20.152C80.2989 20.0774 80.9879 19.2671 80.9133 18.3426C80.8386 17.4179 80.0301 16.7316 79.1039 16.8035C74.0694 17.2098 67.1234 19.2107 62.7263 23.6078C62.0704 24.2637 62.0704 25.3273 62.7263 25.9832Z" fill="#1E1E1E"/>
<path d="M84.7561 17.1264C84.7086 17.1137 84.6602 17.1011 84.6113 17.0888C83.7112 16.8644 82.7998 17.4128 82.5755 18.313C82.3515 19.2131 82.8995 20.1247 83.7997 20.3488L83.8855 20.3709C84.0313 20.4101 84.1778 20.4289 84.3219 20.4289C85.0633 20.4289 85.7419 19.9342 85.9432 19.1841C86.1835 18.2881 85.6522 17.367 84.7561 17.1264Z" fill="#1E1E1E"/>
<path d="M12.3457 14.0459H14.0254V15.7256C14.0254 16.6531 14.7774 17.4053 15.7051 17.4053C16.6328 17.4053 17.3848 16.6531 17.3848 15.7256V14.0459H19.0645C19.9921 14.0459 20.7441 13.2937 20.7441 12.3662C20.7441 11.4387 19.9921 10.6865 19.0645 10.6865H17.3848V9.00684C17.3848 8.07931 16.6328 7.32715 15.7051 7.32715C14.7774 7.32715 14.0254 8.07931 14.0254 9.00684V10.6865H12.3457C11.418 10.6865 10.666 11.4387 10.666 12.3662C10.666 13.2939 11.418 14.0459 12.3457 14.0459Z" fill="#1E1E1E"/>
<path d="M51.6504 30.3385H53.3302V32.0181C53.3302 32.9458 54.0824 33.6978 55.0099 33.6978C55.9376 33.6978 56.6896 32.9458 56.6896 32.0181V30.3385H58.3691C59.2967 30.3385 60.0488 29.5864 60.0488 28.6589C60.0488 27.7313 59.2967 26.9792 58.3691 26.9792H56.6896V25.2993C56.6896 24.3718 55.9376 23.6196 55.0099 23.6196C54.0824 23.6196 53.3302 24.3718 53.3302 25.2993V26.9792H51.6504C50.7229 26.9792 49.9707 27.7313 49.9707 28.6589C49.9707 29.5865 50.7229 30.3385 51.6504 30.3385Z" fill="#1E1E1E"/>
<path d="M74.998 70.1465H73.3184V68.4668C73.3184 67.5393 72.5662 66.7871 71.6387 66.7871C70.7111 66.7871 69.959 67.5393 69.959 68.4668V70.1465H68.2793C67.3518 70.1465 66.5996 70.8986 66.5996 71.8262C66.5996 72.7537 67.3518 73.5059 68.2793 73.5059H69.959V75.1855C69.959 76.1131 70.7111 76.8652 71.6387 76.8652C72.5662 76.8652 73.3184 76.1131 73.3184 75.1855V73.5059H74.998C75.9256 73.5059 76.6777 72.7537 76.6777 71.8262C76.6777 70.8986 75.9257 70.1465 74.998 70.1465Z" fill="#1E1E1E"/>
<path d="M65.5039 10.0781C68.2824 10.0781 70.543 7.8176 70.543 5.03906C70.543 2.26052 68.2824 0 65.5039 0C62.7254 0 60.4648 2.26052 60.4648 5.03906C60.4648 7.8176 62.7254 10.0781 65.5039 10.0781ZM65.5039 3.35938C66.4301 3.35938 67.1836 4.11288 67.1836 5.03906C67.1836 5.96524 66.4301 6.71875 65.5039 6.71875C64.5777 6.71875 63.8242 5.96524 63.8242 5.03906C63.8242 4.11288 64.5777 3.35938 65.5039 3.35938Z" fill="#1E1E1E"/>
<path d="M76.0059 29.1626C73.2273 29.1626 70.9668 31.4231 70.9668 34.2017C70.9668 36.9802 73.2273 39.2407 76.0059 39.2407C78.7844 39.2407 81.0449 36.9802 81.0449 34.2017C81.0449 31.4231 78.7842 29.1626 76.0059 29.1626ZM76.0059 35.8813C75.0797 35.8813 74.3262 35.1278 74.3262 34.2017C74.3262 33.2755 75.0797 32.522 76.0059 32.522C76.932 32.522 77.6855 33.2755 77.6855 34.2017C77.6855 35.1278 76.932 35.8813 76.0059 35.8813Z" fill="#1E1E1E"/>
<path d="M33.3418 16.061C36.1203 16.061 38.3809 13.8005 38.3809 11.022C38.3809 8.24344 36.1203 5.98291 33.3418 5.98291C30.5633 5.98291 28.3027 8.24344 28.3027 11.022C28.3027 13.8005 30.5633 16.061 33.3418 16.061ZM33.3418 9.34229C34.268 9.34229 35.0215 10.0958 35.0215 11.022C35.0215 11.9482 34.268 12.7017 33.3418 12.7017C32.4156 12.7017 31.6621 11.9482 31.6621 11.022C31.6621 10.096 32.4156 9.34229 33.3418 9.34229Z" fill="#1E1E1E"/>
<path d="M75.4492 49.3926C75.4492 48.4674 74.6947 47.7129 73.7695 47.7129C72.8444 47.7129 72.0898 48.4674 72.0898 49.3926C72.0898 50.3177 72.8444 51.0723 73.7695 51.0723C74.6947 51.0723 75.4492 50.3176 75.4492 49.3926Z" fill="#1E1E1E"/>
<path d="M56.3008 15.9673C57.226 15.9673 57.9805 15.2128 57.9805 14.2876C57.9805 13.3624 57.226 12.6079 56.3008 12.6079C55.3756 12.6079 54.6211 13.3624 54.6211 14.2876C54.6213 15.2126 55.3758 15.9673 56.3008 15.9673Z" fill="#1E1E1E"/>
<path d="M78.8088 60.3101C77.8836 60.3101 77.1289 61.0647 77.1289 61.9899C77.1289 62.9151 77.8836 63.6696 78.8088 63.6696C79.7338 63.6696 80.4884 62.9151 80.4884 61.9899C80.4884 61.0647 79.7338 60.3101 78.8088 60.3101Z" fill="#1E1E1E"/>
<path d="M23.3789 5.03906C24.3041 5.03906 25.0586 4.28455 25.0586 3.35937C25.0586 2.4342 24.3041 1.67969 23.3789 1.67969C22.4537 1.67969 21.6992 2.4342 21.6992 3.35937C21.6992 4.28455 22.4537 5.03906 23.3789 5.03906Z" fill="#1E1E1E"/>
</g>
<defs>
<clipPath id="clip0">
<rect width="86" height="86" fill="white"/>
</clipPath>
</defs>
</svg>
