<svg width="36" height="36" viewBox="0 0 36 36" fill="none" xmlns="http://www.w3.org/2000/svg">
<g clip-path="url(#clip0)">
<path d="M25.9078 36C19.5969 36 12.8575 33.681 7.58812 28.4118C2.32755 23.1512 0 16.4163 0 10.0922C0 4.51856 4.50928 0 10.0922 0C10.5235 0 10.9112 0.262547 11.0714 0.662977L15.5902 11.9599C15.8065 12.5007 15.5435 13.1145 15.0027 13.3308L10.0389 15.3163C10.39 21.027 14.974 25.6106 20.6837 25.9613L22.6692 20.9974C22.8851 20.4575 23.4986 20.1935 24.0402 20.4099L35.337 24.9286C35.7374 25.0888 36 25.4765 36 25.9078C36 31.4814 31.4907 36 25.9078 36Z" fill="white"/>
</g>
<defs>
<clipPath id="clip0">
<rect width="36" height="36" fill="white"/>
</clipPath>
</defs>
</svg>
