<svg width="32" height="32" viewBox="0 0 32 32" fill="none" xmlns="http://www.w3.org/2000/svg">
<path d="M17.4375 22.75C17.4375 24.1285 18.559 25.25 19.9375 25.25H22.875C24.2535 25.25 25.375 24.1285 25.375 22.75V19.8125C25.375 18.434 24.2535 17.3125 22.875 17.3125H19.9375C18.559 17.3125 17.4375 18.434 17.4375 19.8125V22.75ZM19.9375 19.8125H22.875L22.8766 22.7499C22.8766 22.7499 22.8761 22.75 22.875 22.75H19.9375V19.8125Z" fill="#1E1E1E"/>
<path d="M24.125 14.375C24.8154 14.375 25.375 13.8154 25.375 13.125C25.375 12.4346 24.8154 11.875 24.125 11.875C23.4346 11.875 22.875 12.4346 22.875 13.125C22.875 13.8154 23.4346 14.375 24.125 14.375Z" fill="#1E1E1E"/>
<path d="M18.6875 14.375C19.3779 14.375 19.9375 13.8154 19.9375 13.125C19.9375 12.4346 19.3779 11.875 18.6875 11.875C17.9971 11.875 17.4375 12.4346 17.4375 13.125C17.4375 13.8154 17.9971 14.375 18.6875 14.375Z" fill="#1E1E1E"/>
<path d="M30.75 22C31.4404 22 32 21.4404 32 20.75V7.5C32 4.743 29.757 2.5 27 2.5H25.375V1.25C25.375 0.559625 24.8154 0 24.125 0C23.4346 0 22.875 0.559625 22.875 1.25V2.5H17.1875V1.25C17.1875 0.559625 16.6279 0 15.9375 0C15.2471 0 14.6875 0.559625 14.6875 1.25V2.5H9.0625V1.25C9.0625 0.559625 8.50288 0 7.8125 0C7.12213 0 6.5625 0.559625 6.5625 1.25V2.5H5C2.243 2.5 0 4.743 0 7.5V27C0 29.757 2.243 32 5 32H27C29.757 32 32 29.757 32 27C32 26.3096 31.4404 25.75 30.75 25.75C30.0596 25.75 29.5 26.3096 29.5 27C29.5 28.3785 28.3785 29.5 27 29.5H5C3.6215 29.5 2.5 28.3785 2.5 27V7.5C2.5 6.1215 3.6215 5 5 5H6.5625V6.25C6.5625 6.94037 7.12213 7.5 7.8125 7.5C8.50288 7.5 9.0625 6.94037 9.0625 6.25V5H14.6875V6.25C14.6875 6.94037 15.2471 7.5 15.9375 7.5C16.6279 7.5 17.1875 6.94037 17.1875 6.25V5H22.875V6.25C22.875 6.94037 23.4346 7.5 24.125 7.5C24.8154 7.5 25.375 6.94037 25.375 6.25V5H27C28.3785 5 29.5 6.1215 29.5 7.5V20.75C29.5 21.4404 30.0596 22 30.75 22Z" fill="#1E1E1E"/>
<path d="M7.8125 25.25C8.50286 25.25 9.0625 24.6904 9.0625 24C9.0625 23.3096 8.50286 22.75 7.8125 22.75C7.12214 22.75 6.5625 23.3096 6.5625 24C6.5625 24.6904 7.12214 25.25 7.8125 25.25Z" fill="#1E1E1E"/>
<path d="M7.8125 14.375C8.50286 14.375 9.0625 13.8154 9.0625 13.125C9.0625 12.4346 8.50286 11.875 7.8125 11.875C7.12214 11.875 6.5625 12.4346 6.5625 13.125C6.5625 13.8154 7.12214 14.375 7.8125 14.375Z" fill="#1E1E1E"/>
<path d="M7.8125 19.8125C8.50286 19.8125 9.0625 19.2529 9.0625 18.5625C9.0625 17.8721 8.50286 17.3125 7.8125 17.3125C7.12214 17.3125 6.5625 17.8721 6.5625 18.5625C6.5625 19.2529 7.12214 19.8125 7.8125 19.8125Z" fill="#1E1E1E"/>
<path d="M13.25 19.8125C13.9404 19.8125 14.5 19.2529 14.5 18.5625C14.5 17.8721 13.9404 17.3125 13.25 17.3125C12.5596 17.3125 12 17.8721 12 18.5625C12 19.2529 12.5596 19.8125 13.25 19.8125Z" fill="#1E1E1E"/>
<path d="M13.25 14.375C13.9404 14.375 14.5 13.8154 14.5 13.125C14.5 12.4346 13.9404 11.875 13.25 11.875C12.5596 11.875 12 12.4346 12 13.125C12 13.8154 12.5596 14.375 13.25 14.375Z" fill="#1E1E1E"/>
<path d="M13.25 25.25C13.9404 25.25 14.5 24.6904 14.5 24C14.5 23.3096 13.9404 22.75 13.25 22.75C12.5596 22.75 12 23.3096 12 24C12 24.6904 12.5596 25.25 13.25 25.25Z" fill="#1E1E1E"/>
</svg>
