<svg width="86" height="86" viewBox="0 0 86 86" fill="none" xmlns="http://www.w3.org/2000/svg">
<g clip-path="url(#clip0)">
<path d="M85.8415 78.9174C85.4492 78.0769 84.4512 77.7127 83.6094 78.1044L80.1004 79.7408L73.6908 65.995C78.5868 62.8082 80.5276 56.4064 77.989 50.9619L63.0996 19.0316C62.9113 18.6274 62.5701 18.3151 62.1515 18.1628C61.7335 18.0106 61.2716 18.0303 60.8674 18.2193L42.9992 26.5507L25.1316 18.2193C24.7281 18.031 24.2662 18.0106 23.8476 18.1628C23.429 18.3151 23.0878 18.6274 22.8995 19.0316L8.01003 50.9619C5.47148 56.4064 7.41164 62.8082 12.3083 65.995L5.89862 79.7408L2.38966 78.1044C1.54851 77.7127 0.549232 78.0762 0.156869 78.9174C-0.234837 79.7579 0.128656 80.7571 0.969808 81.1495L11.0328 85.8415C11.2624 85.9491 11.5039 85.9996 11.7414 85.9996C12.3739 85.9996 12.9802 85.64 13.2649 85.0292C13.6566 84.1887 13.2931 83.1894 12.4526 82.797L8.94304 81.1607L15.354 67.4135C16.4918 67.76 17.6531 67.9312 18.8026 67.9312C23.2977 67.9312 27.6104 65.3796 29.632 61.0445L42.9992 32.3791L56.3664 61.0445C58.388 65.3802 62.7007 67.9312 67.1958 67.9312C68.3453 67.9312 69.5066 67.76 70.645 67.4135L77.0554 81.1607L73.5464 82.797C72.7053 83.1894 72.3418 84.1887 72.7335 85.0292C73.0189 85.6407 73.6245 85.9996 74.257 85.9996C74.4945 85.9996 74.7366 85.9484 74.9663 85.8415L85.0286 81.1495C85.8697 80.7571 86.2339 79.7579 85.8415 78.9174ZM26.5882 59.6247C24.591 63.9072 19.4824 65.7667 15.1998 63.7694C10.9173 61.7728 9.05786 56.6642 11.0551 52.3817L17.0409 39.5446H35.9518L26.5882 59.6247ZM37.5179 36.1853H18.6071L25.2346 21.9736L40.7677 29.2166L37.5179 36.1853ZM60.7651 21.9736L67.392 36.1853H48.4811L45.232 29.2166L60.7651 21.9736ZM59.4115 59.6247L50.0479 39.5446H68.9581L74.9446 52.3817C76.9412 56.6642 75.0817 61.7728 70.7992 63.7694C66.5173 65.766 61.4081 63.9072 59.4115 59.6247Z" fill="white"/>
<path d="M43.001 14.3065C43.9281 14.3065 44.6807 13.5546 44.6807 12.6268V1.68066C44.6807 0.752899 43.9281 0.000976562 43.001 0.000976562C42.0732 0.000976562 41.3213 0.752899 41.3213 1.68066V12.6268C41.3213 13.5546 42.0732 14.3065 43.001 14.3065Z" fill="white"/>
<path d="M43.001 21.0254C43.4426 21.0254 43.8756 20.8456 44.1879 20.5326C44.5009 20.2203 44.6807 19.7873 44.6807 19.3457C44.6807 18.9035 44.5009 18.4704 44.1879 18.1581C43.8756 17.8451 43.4426 17.666 43.001 17.666C42.5587 17.666 42.1257 17.8451 41.8134 18.1581C41.5011 18.4704 41.3213 18.9035 41.3213 19.3457C41.3213 19.7873 41.5004 20.2203 41.8134 20.5326C42.1257 20.8456 42.5587 21.0254 43.001 21.0254Z" fill="white"/>
<path d="M49.5517 17.1328C49.9814 17.1328 50.4112 16.9688 50.7393 16.6407L56.4502 10.9298C57.1057 10.2743 57.1057 9.21072 56.4502 8.5546C55.7941 7.89847 54.7305 7.89847 54.0744 8.5546L48.3634 14.2655C47.708 14.921 47.708 15.9846 48.3634 16.6407C48.6915 16.9688 49.1213 17.1328 49.5517 17.1328Z" fill="white"/>
<path d="M35.2624 16.6407C35.5904 16.9688 36.0202 17.1328 36.4506 17.1328C36.8804 17.1328 37.3101 16.9688 37.6382 16.6407C38.2937 15.9852 38.2937 14.9217 37.6382 14.2655L31.9273 8.5546C31.2711 7.89847 30.2075 7.89847 29.5514 8.5546C28.8959 9.21072 28.8959 10.2743 29.5514 10.9304L35.2624 16.6407Z" fill="white"/>
<path d="M60.6412 44.3699L60.6163 44.3154C60.2239 43.4749 59.2247 43.1101 58.3842 43.5025C57.543 43.8942 57.1789 44.8935 57.5706 45.734L57.5955 45.7878C57.8809 46.3993 58.4865 46.7589 59.1197 46.7589C59.3565 46.7589 59.598 46.7083 59.8276 46.6014C60.6688 46.2097 61.0329 45.2104 60.6412 44.3699Z" fill="white"/>
<path d="M63.277 50.0239C62.8853 49.1834 61.886 48.8192 61.0449 49.2116C60.2044 49.6033 59.8402 50.6033 60.2326 51.4438L63.8118 59.1191C64.0965 59.7307 64.7028 60.0896 65.3353 60.0896C65.5728 60.0896 65.8143 60.039 66.0439 59.9314C66.8844 59.5397 67.2486 58.5404 66.8562 57.6999L63.277 50.0239Z" fill="white"/>
</g>
<defs>
<clipPath id="clip0">
<rect width="86" height="86" fill="white"/>
</clipPath>
</defs>
</svg>
