<svg width="26" height="26" viewBox="0 0 26 26" fill="none" xmlns="http://www.w3.org/2000/svg">
<path d="M21.9375 11.375H4.0625C3.84701 11.375 3.64035 11.2894 3.48798 11.137C3.3356 10.9847 3.25 10.778 3.25 10.5625C3.25 10.347 3.3356 10.1403 3.48798 9.98798C3.64035 9.8356 3.84701 9.75 4.0625 9.75H21.9375C22.153 9.75 22.3597 9.8356 22.512 9.98798C22.6644 10.1403 22.75 10.347 22.75 10.5625C22.75 10.778 22.6644 10.9847 22.512 11.137C22.3597 11.2894 22.153 11.375 21.9375 11.375Z" fill="white"/>
<path d="M18.6875 17.875H7.3125C7.09701 17.875 6.89035 17.7894 6.73798 17.637C6.5856 17.4847 6.5 17.278 6.5 17.0625C6.5 16.847 6.5856 16.6403 6.73798 16.488C6.89035 16.3356 7.09701 16.25 7.3125 16.25H18.6875C18.903 16.25 19.1097 16.3356 19.262 16.488C19.4144 16.6403 19.5 16.847 19.5 17.0625C19.5 17.278 19.4144 17.4847 19.262 17.637C19.1097 17.7894 18.903 17.875 18.6875 17.875Z" fill="white"/>
<path d="M15.4375 24.375H10.5625C10.347 24.375 10.1403 24.2894 9.98798 24.137C9.8356 23.9847 9.75 23.778 9.75 23.5625C9.75 23.347 9.8356 23.1403 9.98798 22.988C10.1403 22.8356 10.347 22.75 10.5625 22.75H15.4375C15.653 22.75 15.8597 22.8356 16.012 22.988C16.1644 23.1403 16.25 23.347 16.25 23.5625C16.25 23.778 16.1644 23.9847 16.012 24.137C15.8597 24.2894 15.653 24.375 15.4375 24.375Z" fill="white"/>
<path d="M23.5625 4.875H2.4375C2.22201 4.875 2.01535 4.7894 1.86298 4.63702C1.7106 4.48465 1.625 4.27799 1.625 4.0625C1.625 3.84701 1.7106 3.64035 1.86298 3.48798C2.01535 3.3356 2.22201 3.25 2.4375 3.25H23.5625C23.778 3.25 23.9847 3.3356 24.137 3.48798C24.2894 3.64035 24.375 3.84701 24.375 4.0625C24.375 4.27799 24.2894 4.48465 24.137 4.63702C23.9847 4.7894 23.778 4.875 23.5625 4.875Z" fill="white"/>
</svg>
