<svg width="58" height="58" viewBox="0 0 58 58" fill="none" xmlns="http://www.w3.org/2000/svg">
<path d="M13.8677 22.0933L13.7638 22.0907C12.5126 22.0629 11.4735 23.048 11.4421 24.2989C11.4108 25.5497 12.3994 26.5892 13.6503 26.6206L13.7735 26.6235C18.6715 26.7183 22.6562 30.7827 22.6562 35.6836C22.6562 40.6807 18.5908 44.7461 13.5938 44.7461C8.59669 44.7461 4.53125 40.6807 4.53125 35.6836C4.53125 29.4421 6.01569 23.6826 8.94367 18.5651C11.1319 14.7402 13.3572 12.7198 13.3988 12.6824C14.332 11.854 14.4197 10.4258 13.5934 9.48926C12.7654 8.55118 11.3339 8.46157 10.3956 9.28932C10.2861 9.38606 7.68296 11.7078 5.12054 16.1241C2.78445 20.1503 0 26.8118 0 35.6836C0 43.1792 6.09816 49.2774 13.5938 49.2774C21.0893 49.2774 27.1875 43.1792 27.1875 35.6836C27.1875 32.0993 25.8046 28.7172 23.2936 26.1602C20.7876 23.6084 17.4401 22.1642 13.8677 22.0933Z" fill="white"/>
<path d="M54.1061 26.1602C51.6 23.6083 48.2527 22.164 44.68 22.0932L44.5763 22.0906C43.3292 22.0629 42.286 23.048 42.2546 24.2988C42.2232 25.5497 43.2119 26.5891 44.4628 26.6205L44.586 26.6235C49.484 26.7184 53.4688 30.7828 53.4688 35.6836C53.4688 40.6807 49.4033 44.7461 44.4062 44.7461C39.4092 44.7461 35.3438 40.6807 35.3438 35.6836C35.3438 29.442 36.8282 23.6825 39.7561 18.5652C41.9443 14.7403 44.1696 12.7199 44.2112 12.6825C45.1445 11.854 45.2321 10.4258 44.4058 9.48934C43.5779 8.55115 42.1463 8.46154 41.208 9.2894C41.0986 9.38614 38.4953 11.7078 35.9329 16.1242C33.597 20.1502 30.8125 26.8117 30.8125 35.6836C30.8125 43.1792 36.9107 49.2773 44.4062 49.2773C51.9018 49.2773 58 43.1792 58 35.6836C58 32.0993 56.6171 28.7171 54.1061 26.1602Z" fill="white"/>
</svg>
