<svg width="86" height="86" viewBox="0 0 86 86" fill="none" xmlns="http://www.w3.org/2000/svg">
<g clip-path="url(#clip0)">
<path d="M51.985 33.9982C51.7961 33.9982 51.6058 33.9661 51.4221 33.9011L43 30.9059L34.5772 33.9011C34.0556 34.0868 33.4756 34.0028 33.0274 33.6774C32.5793 33.3513 32.3201 32.8257 32.3352 32.2719L32.5813 23.3361L27.1301 16.2512C26.7922 15.8129 26.6925 15.2348 26.8637 14.708C27.035 14.1811 27.4549 13.773 27.9864 13.6162L36.5607 11.0887L41.6142 3.71448C41.9279 3.25781 42.4462 2.98486 43 2.98486C43.5537 2.98486 44.0721 3.25781 44.3857 3.71448L49.4392 11.0887L58.0136 13.6162C58.545 13.773 58.965 14.1811 59.1362 14.708C59.3075 15.2348 59.2077 15.8122 58.8698 16.2512L53.4187 23.3367L53.6647 32.2719C53.6798 32.8257 53.4207 33.3519 52.9725 33.6774C52.6818 33.8886 52.3348 33.9982 51.985 33.9982ZM31.2874 16.1455L35.608 21.7614C35.8435 22.0671 35.9662 22.4451 35.9557 22.8315L35.7609 29.9145L42.437 27.5406C42.8012 27.4113 43.1988 27.4113 43.5629 27.5406L50.2384 29.9145L50.0442 22.8315C50.033 22.4451 50.1564 22.0671 50.3919 21.7614L54.7126 16.1455L47.9164 14.1417C47.5456 14.0328 47.2241 13.7992 47.0057 13.4803L43 7.63552L38.9943 13.4803C38.7758 13.7992 38.4543 14.0328 38.0836 14.1417L31.2874 16.1455Z" fill="white"/>
<path d="M67.4845 18.5319C67.1348 18.5319 66.7877 18.4224 66.497 18.2111C66.0489 17.8856 65.7897 17.3601 65.8055 16.8063L65.9085 13.0414L63.612 10.056C63.2741 9.61707 63.175 9.03967 63.3456 8.5128C63.5169 7.98593 63.9368 7.57781 64.4683 7.421L68.0809 6.3561L70.2101 3.24932C70.5237 2.79199 71.042 2.51904 71.5958 2.51904C72.1496 2.51904 72.6679 2.79199 72.9816 3.24932L75.1107 6.3561L78.7227 7.421C79.2542 7.57781 79.6741 7.98593 79.846 8.5128C80.0166 9.03967 79.9175 9.61707 79.5796 10.056L77.2825 13.0414L77.3862 16.8063C77.4019 17.3601 77.1427 17.8856 76.6946 18.2111C76.2465 18.5365 75.6664 18.6198 75.1448 18.4348L71.5958 17.1731L68.0475 18.4348C67.8637 18.4998 67.6735 18.5319 67.4845 18.5319ZM71.5958 13.7107C71.7861 13.7107 71.9764 13.7428 72.1581 13.8078L73.9605 14.4482L73.908 12.5362C73.8969 12.1497 74.0202 11.7718 74.2558 11.466L75.4217 9.94973L73.5872 9.40908C73.2171 9.30016 72.8949 9.06658 72.6765 8.7477L71.5952 7.1697L70.5138 8.7477C70.2954 9.06658 69.9739 9.2995 69.6031 9.40908L67.7686 9.94973L68.9352 11.466C69.1701 11.7718 69.2934 12.1497 69.2823 12.5362L69.2298 14.4482L71.0322 13.8078C71.2153 13.7428 71.4049 13.7107 71.5958 13.7107Z" fill="white"/>
<path d="M18.5158 18.5319C18.3268 18.5319 18.1365 18.4998 17.9528 18.4348L14.4044 17.1731L10.8561 18.4348C10.3338 18.6205 9.75444 18.5365 9.30565 18.2111C8.85751 17.8856 8.59899 17.3601 8.61408 16.8063L8.71775 13.0414L6.42064 10.056C6.08273 9.61707 5.98365 9.03967 6.1549 8.5128C6.32615 7.98527 6.74608 7.57716 7.27754 7.42034L10.8895 6.35544L13.0187 3.24866C13.3323 2.79199 13.8507 2.51904 14.4044 2.51904C14.9582 2.51904 15.4766 2.79199 15.7902 3.24866L17.9193 6.35544L21.5313 7.421C22.0628 7.57716 22.4827 7.98593 22.654 8.5128C22.8252 9.03967 22.7255 9.61707 22.3882 10.056L20.0911 13.0408L20.1948 16.8056C20.2099 17.3594 19.9514 17.8856 19.5032 18.2111C19.2126 18.4224 18.8661 18.5319 18.5158 18.5319ZM14.4044 13.7107C14.5947 13.7107 14.7857 13.7428 14.9674 13.8078L16.7698 14.4482L16.7173 12.5362C16.7062 12.1497 16.8295 11.7718 17.0644 11.466L18.231 9.94973L16.3965 9.40908C16.0257 9.30016 15.7042 9.06658 15.4857 8.7477L14.4044 7.1697L13.3231 8.7477C13.1046 9.06658 12.7831 9.2995 12.4124 9.40908L10.5779 9.94973L11.7445 11.466C11.98 11.7718 12.1027 12.1497 12.0922 12.5362L12.0397 14.4482L13.8421 13.8078C14.0239 13.7428 14.2142 13.7107 14.4044 13.7107Z" fill="white"/>
<path d="M43.0005 71.9751C42.8916 71.9751 42.7807 71.9633 42.6731 71.9416C42.5655 71.9213 42.4598 71.8878 42.3588 71.8458C42.2564 71.8038 42.1587 71.7514 42.0681 71.691C41.9756 71.6306 41.8903 71.5604 41.8129 71.483C41.7355 71.4056 41.6653 71.3203 41.6049 71.2278C41.5439 71.1372 41.4921 71.0395 41.4501 70.9371C41.4081 70.8361 41.3746 70.7304 41.3543 70.6228C41.3326 70.5152 41.3208 70.4043 41.3208 70.2954C41.3208 70.1865 41.3326 70.0756 41.3543 69.968C41.3746 69.8604 41.4081 69.7548 41.4501 69.6524C41.4921 69.5514 41.5439 69.4536 41.6049 69.363C41.6653 69.2705 41.7355 69.1852 41.8129 69.1078C41.8903 69.0304 41.9756 68.9602 42.0681 68.8998C42.1587 68.8388 42.2564 68.787 42.3588 68.745C42.4598 68.703 42.5655 68.6708 42.6731 68.6492C42.8896 68.6059 43.1114 68.6059 43.3279 68.6492C43.4355 68.6708 43.5412 68.703 43.6422 68.745C43.7446 68.787 43.8417 68.8388 43.9322 68.8998C44.0247 68.9602 44.1107 69.0304 44.1881 69.1078C44.2655 69.1852 44.3357 69.2705 44.3961 69.363C44.4565 69.4536 44.509 69.5514 44.5509 69.6524C44.5929 69.7548 44.6264 69.8604 44.6461 69.968C44.6684 70.0756 44.6802 70.1865 44.6802 70.2954C44.6802 70.4043 44.6684 70.5159 44.6461 70.6228C44.6244 70.7304 44.5929 70.8361 44.5509 70.9371C44.509 71.0395 44.4565 71.1372 44.3961 71.2278C44.3357 71.3203 44.2655 71.4056 44.1881 71.483C44.1107 71.5604 44.0247 71.6306 43.9322 71.691C43.8417 71.7514 43.7446 71.8038 43.6422 71.8458C43.5412 71.8878 43.4355 71.9213 43.3279 71.9416C43.2203 71.9633 43.1094 71.9751 43.0005 71.9751Z" fill="white"/>
<path d="M43.0005 66.4324C42.0727 66.4324 41.3208 65.6805 41.3208 64.7527V37.0371C41.3208 36.11 42.0727 35.3574 43.0005 35.3574C43.9283 35.3574 44.6802 36.11 44.6802 37.0371V64.7527C44.6802 65.6799 43.9283 66.4324 43.0005 66.4324Z" fill="white"/>
<path d="M71.5127 55.7288C71.4248 55.7288 71.3375 55.7223 71.2496 55.7078C70.7024 55.6212 70.2332 55.2708 69.9951 54.7702L66.9762 48.4195L60.6262 45.4007C60.1255 45.1632 59.7745 44.694 59.6879 44.1468C59.6013 43.5996 59.7903 43.0445 60.1925 42.664L65.2991 37.8309L66.2079 30.8582C66.2794 30.309 66.6173 29.83 67.1107 29.5787C67.6048 29.3268 68.1901 29.3353 68.6769 29.6004L74.8518 32.9631L81.7635 31.6731C82.308 31.5707 82.8677 31.7446 83.2594 32.1363C83.6511 32.528 83.8244 33.0877 83.7233 33.6323L82.4327 40.544L85.796 46.7188C86.0605 47.2057 86.069 47.7916 85.817 48.285C85.5657 48.7784 85.0868 49.1163 84.5376 49.1879L77.5655 50.0966L72.7318 55.2033C72.4123 55.5418 71.97 55.7288 71.5127 55.7288ZM64.2815 43.4192L68.9584 45.6421C69.3068 45.8081 69.5883 46.089 69.7543 46.438L71.9772 51.1143L75.5361 47.354C75.8018 47.0732 76.1562 46.8927 76.5393 46.8428L81.6736 46.1736L79.1967 41.6266C79.0123 41.2874 78.95 40.895 79.0208 40.5151L79.9709 35.4249L74.8813 36.3756C74.5014 36.4458 74.109 36.3841 73.7698 36.1991L69.2222 33.7229L68.5536 38.8571C68.5037 39.2403 68.3232 39.5946 68.0424 39.8596L64.2815 43.4192Z" fill="white"/>
<path d="M45.9648 83.7102C45.9064 83.7102 45.8487 83.7076 45.7897 83.7017C44.8671 83.6059 44.1966 82.7805 44.2917 81.8579C45.3927 71.2076 50.5204 63.1169 54.6284 58.2051C59.0645 52.8996 63.2598 50.0802 63.4356 49.9627C64.2079 49.449 65.2505 49.6576 65.7649 50.4306C66.2786 51.2022 66.0693 52.2454 65.2971 52.7592C65.1376 52.8655 61.3334 55.4231 57.205 60.3598C53.3981 64.9127 48.6464 72.3978 47.6334 82.2037C47.5441 83.0672 46.8145 83.7102 45.9648 83.7102Z" fill="white"/>
<path d="M14.4877 55.7291C14.0304 55.7291 13.5881 55.5421 13.268 55.2042L8.43489 50.0975L1.46218 49.1888C0.913003 49.1172 0.434027 48.7793 0.182729 48.2853C-0.0685696 47.7918 -0.060696 47.2059 0.204381 46.7197L3.56705 40.5449L2.2771 33.6325C2.17474 33.088 2.34862 32.5283 2.74033 32.1366C3.13204 31.7449 3.69172 31.571 4.23631 31.6733L11.148 32.9639L17.3228 29.6006C17.8097 29.3355 18.3956 29.3277 18.889 29.579C19.3824 29.8303 19.7203 30.3092 19.7919 30.8584L20.7006 37.8311L25.8079 42.6642C26.2101 43.0454 26.3985 43.5998 26.3118 44.147C26.2252 44.6943 25.8742 45.1634 25.3742 45.4016L19.0235 48.4204L16.0053 54.7705C15.7672 55.2704 15.298 55.6215 14.7508 55.7081C14.6629 55.7225 14.575 55.7291 14.4877 55.7291ZM4.32685 46.1738L9.46108 46.8431C9.84426 46.893 10.1986 47.0734 10.4636 47.3542L14.0232 51.1145L16.2461 46.4383C16.4121 46.0892 16.693 45.8084 17.042 45.6424L21.7183 43.4194L17.958 39.8599C17.6772 39.5948 17.4967 39.2405 17.4469 38.8573L16.7776 33.7231L12.2306 36.2C11.8914 36.3844 11.4984 36.4467 11.1191 36.3758L6.02886 35.4258L6.97894 40.5154C7.05045 40.8953 6.98812 41.2883 6.80309 41.6268L4.32685 46.1738Z" fill="white"/>
<path d="M40.0361 83.7105C39.1857 83.7105 38.4568 83.0675 38.3675 82.2034C37.3538 72.3975 32.6028 64.913 28.7959 60.3601C24.6695 55.426 20.8633 52.8658 20.7032 52.7595C19.9309 52.2451 19.7216 51.2018 20.236 50.4302C20.7504 49.658 21.793 49.4487 22.5653 49.9631C22.7418 50.0805 26.939 52.9032 31.3725 58.2054C35.4806 63.1172 40.6082 71.2079 41.7092 81.8583C41.8044 82.7808 41.1338 83.6062 40.2106 83.7013C40.1522 83.7079 40.0938 83.7105 40.0361 83.7105Z" fill="white"/>
<path d="M56.1959 83.397C55.9617 83.397 55.7235 83.3477 55.4965 83.2441C54.6534 82.857 54.2833 81.8603 54.6704 81.0165C57.2346 75.4256 61.5086 71.9757 64.6423 70.0657C67.963 68.0415 70.661 67.2903 70.9575 67.2109C71.8545 66.972 72.7744 67.5048 73.0132 68.4011C73.252 69.2974 72.7193 70.2179 71.823 70.4567C71.7987 70.4633 69.3572 71.126 66.3902 72.9343C63.6568 74.6002 59.9339 77.5981 57.7234 82.4174C57.4413 83.0335 56.8324 83.397 56.1959 83.397Z" fill="white"/>
<path d="M31.3973 83.397C30.7609 83.397 30.152 83.0335 29.8692 82.4174C27.6594 77.5981 23.9365 74.6002 21.2024 72.9343C18.236 71.126 15.7939 70.4633 15.7696 70.4567C14.8733 70.2173 14.3405 69.2974 14.58 68.4011C14.8189 67.5048 15.7394 66.972 16.6357 67.2109C16.9329 67.2903 19.6316 68.0428 22.951 70.0657C26.0846 71.9757 30.3587 75.4256 32.9228 81.0165C33.31 81.8603 32.9399 82.857 32.0961 83.2441C31.8691 83.3477 31.6316 83.397 31.3973 83.397Z" fill="white"/>
<path d="M78.2473 62.0628C77.3202 62.0628 76.5676 61.3108 76.5676 60.3831V58.9849C76.5676 58.0571 77.3202 57.3052 78.2473 57.3052C79.1751 57.3052 79.927 58.0571 79.927 58.9849V60.3831C79.927 61.3108 79.1751 62.0628 78.2473 62.0628Z" fill="white"/>
<path d="M78.2473 69.6469C77.3202 69.6469 76.5676 68.8943 76.5676 67.9672V66.5684C76.5676 65.6413 77.3202 64.8887 78.2473 64.8887C79.1751 64.8887 79.927 65.6413 79.927 66.5684V67.9672C79.927 68.8943 79.1751 69.6469 78.2473 69.6469Z" fill="white"/>
<path d="M82.7388 65.1553H81.3406C80.4135 65.1553 79.6609 64.4027 79.6609 63.4756C79.6609 62.5478 80.4135 61.7959 81.3406 61.7959H82.7388C83.6666 61.7959 84.4185 62.5478 84.4185 63.4756C84.4185 64.4027 83.6666 65.1553 82.7388 65.1553Z" fill="white"/>
<path d="M75.1553 65.1553H73.7571C72.8293 65.1553 72.0774 64.4027 72.0774 63.4756C72.0774 62.5478 72.8293 61.7959 73.7571 61.7959H75.1553C76.0831 61.7959 76.835 62.5478 76.835 63.4756C76.835 64.4027 76.0831 65.1553 75.1553 65.1553Z" fill="white"/>
<path d="M7.75221 62.0628C6.82444 62.0628 6.07251 61.3108 6.07251 60.3831V58.9849C6.07251 58.0571 6.82444 57.3052 7.75221 57.3052C8.67997 57.3052 9.4319 58.0571 9.4319 58.9849V60.3831C9.4319 61.3108 8.67997 62.0628 7.75221 62.0628Z" fill="white"/>
<path d="M7.75221 69.6469C6.82444 69.6469 6.07251 68.8943 6.07251 67.9672V66.5684C6.07251 65.6413 6.82444 64.8887 7.75221 64.8887C8.67997 64.8887 9.4319 65.6413 9.4319 66.5684V67.9672C9.4319 68.8943 8.67997 69.6469 7.75221 69.6469Z" fill="white"/>
<path d="M12.2434 65.1553H10.8452C9.91745 65.1553 9.16553 64.4027 9.16553 63.4756C9.16553 62.5478 9.91745 61.7959 10.8452 61.7959H12.2434C13.1712 61.7959 13.9231 62.5478 13.9231 63.4756C13.9231 64.4027 13.1712 65.1553 12.2434 65.1553Z" fill="white"/>
<path d="M4.66011 65.1553H3.26124C2.33413 65.1553 1.58154 64.4027 1.58154 63.4756C1.58154 62.5478 2.33413 61.7959 3.26124 61.7959H4.66011C5.58788 61.7959 6.33981 62.5478 6.33981 63.4756C6.33981 64.4027 5.58788 65.1553 4.66011 65.1553Z" fill="white"/>
</g>
<defs>
<clipPath id="clip0">
<rect width="86" height="86" fill="white"/>
</clipPath>
</defs>
</svg>
