<svg width="86" height="86" viewBox="0 0 86 86" fill="none" xmlns="http://www.w3.org/2000/svg">
<g clip-path="url(#clip0)">
<path d="M58.0942 47.3417C61.3111 45.8515 64.5141 44.7644 67.6605 44.0985C68.5681 43.9066 69.148 43.0151 68.9561 42.1076C68.7641 41.2001 67.8737 40.6199 66.965 40.8121C63.3229 41.5827 59.6241 42.8715 55.9247 44.6527C53.8582 42.1881 51.4925 39.6111 48.9402 37.0588C46.228 34.3468 43.4876 31.8437 40.8843 29.6887C43.1371 26.8401 44.9758 23.6507 46.367 20.1601C48.5359 14.7178 49.6358 8.49992 49.6358 1.67871C49.6358 0.75102 48.8836 -0.000976562 47.9561 -0.000976562C47.0286 -0.000976562 46.2764 0.75102 46.2764 1.67871C46.2764 12.1889 43.5815 20.8873 38.2596 27.5996C37.2553 26.8335 36.2816 26.1294 35.3517 25.5024C30.3736 22.1449 27.4087 21.3579 25.7515 22.9557C25.7397 22.9666 25.7275 22.9773 25.716 22.9886C25.7144 22.9903 25.7127 22.9918 25.711 22.9933C25.71 22.9943 25.7091 22.9955 25.7081 22.9963C25.2837 23.4218 25.0217 23.9363 24.9224 24.5502L0.130698 83.67C-0.133013 84.2988 0.0097609 85.025 0.491999 85.5072C0.813491 85.8285 1.24316 85.9992 1.68021 85.9992C1.89891 85.9992 2.11962 85.9565 2.32941 85.8685C2.33411 85.8665 2.32941 85.8685 2.33411 85.8665L61.4492 61.0763C62.0097 60.9856 62.4859 60.7565 62.8885 60.3942C62.9178 60.3699 62.9451 60.344 62.9725 60.3181C62.9833 60.3075 62.9949 60.2988 63.0054 60.288C63.0071 60.2864 63.0085 60.2845 63.01 60.283C63.0216 60.2716 63.0323 60.2592 63.0434 60.2472C64.6409 58.5899 63.854 55.6251 60.4965 50.6473C59.7868 49.5952 58.9804 48.4876 58.0942 47.3417ZM13.3225 74.0329C12.9719 76.2187 12.1924 77.6555 11.8173 78.2468L4.81652 81.1825L11.9265 64.2281C13.3176 67.7153 13.7998 71.0559 13.3225 74.0329ZM23.6586 68.3495C22.9813 72.2101 21.1851 74.0711 20.6743 74.5326L16.2481 76.3887C17.2321 72.8859 17.4908 67.3256 13.6881 60.027L18.7218 48.0241C23.9445 57.9259 24.3363 64.4868 23.6586 68.3495ZM29.6502 70.7683L26.0298 72.2867C26.3748 71.4151 26.679 70.4224 26.8994 69.2976C28.2438 62.4355 26.0491 53.9511 20.3797 44.0708L22.1971 39.7371C23.6356 41.468 25.2746 43.9178 25.9384 45.4625C26.2117 46.0986 26.8313 46.4795 27.4824 46.4795C27.7036 46.4795 27.9287 46.4353 28.1449 46.3426C28.9971 45.9763 29.391 44.9886 29.0248 44.1362C28.0399 41.8444 25.5424 38.2784 23.6319 36.3157L26.4089 29.6935C26.8953 30.5855 27.4978 31.5627 28.2204 32.634C28.718 33.3717 29.263 34.1365 29.8492 34.9226C35.5949 43.6412 35.4649 52.5652 34.3417 58.5195C33.1473 64.8528 30.5896 69.4895 29.6502 70.7683ZM42.5927 65.341L34.6185 68.685C35.77 66.1594 36.9446 62.8439 37.6427 59.1423C38.4224 55.0079 38.7652 49.5711 37.3225 43.7001C38.1182 44.5406 38.9367 45.383 39.7764 46.2227C42.2888 48.735 44.8248 51.0662 47.2543 53.1094C47.0135 61.0397 43.3761 64.6534 42.5927 65.341ZM48.3826 62.9131C49.2817 61.0528 50.0757 58.6554 50.4298 55.661C51.4436 56.435 52.4268 57.1462 53.365 57.7789C54.4368 58.5019 55.4139 59.104 56.3062 59.5905L48.3826 62.9131ZM54.2904 54.3346C50.6387 51.7473 46.3278 48.0228 42.1519 43.8469C37.9762 39.6712 34.2515 35.3603 31.6645 31.7087C29.1626 28.1775 28.4884 26.3743 28.3108 25.5933C29.0919 25.771 30.895 26.4452 34.4262 28.9469C34.9499 29.318 35.4881 29.7145 36.0364 30.1303C35.9186 30.2515 35.8024 30.374 35.6826 30.4937C35.0267 31.1497 35.0267 32.2132 35.6826 32.8693C36.0107 33.1972 36.4405 33.3613 36.8703 33.3613C37.3002 33.3613 37.7302 33.1972 38.058 32.8693C38.269 32.6584 38.4768 32.4445 38.6822 32.2287C41.2301 34.3349 43.9242 36.7939 46.5648 39.4346C48.8356 41.7053 50.9706 44.0152 52.8643 46.238C52.561 46.4064 52.2578 46.5778 51.9546 46.7528C51.1512 47.2167 50.8759 48.244 51.3398 49.0472C51.6509 49.5861 52.2155 49.8874 52.7961 49.8874C53.081 49.8874 53.3699 49.8147 53.6343 49.662C54.1006 49.3926 54.5672 49.1341 55.0336 48.8816C55.7635 49.8085 56.4407 50.7096 57.0523 51.573C59.5543 55.1042 60.2284 56.9073 60.406 57.6884C59.6246 57.5105 57.8214 56.8363 54.2904 54.3346Z" fill="white"/>
<path d="M30.3833 48.4646C30.0025 47.6185 29.0083 47.2413 28.1622 47.622C27.3426 47.9909 26.9629 48.9359 27.2865 49.7638C27.5408 50.4295 28.1765 50.8438 28.8553 50.8438C29.0394 50.8438 29.2265 50.8133 29.4102 50.7491C30.2857 50.4427 30.7473 49.4845 30.4407 48.6089C30.4248 48.5633 30.4031 48.5086 30.3833 48.4646Z" fill="white"/>
<path d="M62.7256 25.9832C63.0536 26.311 63.4835 26.4752 63.9133 26.4752C64.3433 26.4752 64.773 26.311 65.101 25.9832C68.8539 22.2302 74.9342 20.5102 79.3735 20.152C80.2981 20.0774 80.9871 19.2671 80.9126 18.3426C80.8378 17.4179 80.0294 16.7316 79.1032 16.8035C74.0687 17.2098 67.1227 19.2107 62.7256 23.6078C62.0697 24.2637 62.0697 25.3273 62.7256 25.9832Z" fill="white"/>
<path d="M84.7554 17.1264C84.7078 17.1137 84.6595 17.1011 84.6106 17.0888C83.7104 16.8644 82.799 17.4128 82.5748 18.313C82.3507 19.2131 82.8988 20.1247 83.799 20.3488L83.8848 20.3709C84.0306 20.4101 84.1771 20.4289 84.3212 20.4289C85.0626 20.4289 85.7412 19.9342 85.9424 19.1841C86.1828 18.2881 85.6515 17.367 84.7554 17.1264Z" fill="white"/>
<path d="M12.3467 14.0459H14.0264V15.7256C14.0264 16.6531 14.7784 17.4053 15.7061 17.4053C16.6337 17.4053 17.3857 16.6531 17.3857 15.7256V14.0459H19.0654C19.9931 14.0459 20.7451 13.2937 20.7451 12.3662C20.7451 11.4387 19.9931 10.6865 19.0654 10.6865H17.3857V9.00684C17.3857 8.07931 16.6337 7.32715 15.7061 7.32715C14.7784 7.32715 14.0264 8.07931 14.0264 9.00684V10.6865H12.3467C11.419 10.6865 10.667 11.4387 10.667 12.3662C10.667 13.2939 11.419 14.0459 12.3467 14.0459Z" fill="white"/>
<path d="M51.6509 30.3385H53.3307V32.0181C53.3307 32.9458 54.0829 33.6978 55.0104 33.6978C55.9381 33.6978 56.6901 32.9458 56.6901 32.0181V30.3385H58.3696C59.2972 30.3385 60.0493 29.5864 60.0493 28.6589C60.0493 27.7313 59.2972 26.9792 58.3696 26.9792H56.6901V25.2993C56.6901 24.3718 55.9381 23.6196 55.0104 23.6196C54.0829 23.6196 53.3307 24.3718 53.3307 25.2993V26.9792H51.6509C50.7234 26.9792 49.9712 27.7313 49.9712 28.6589C49.9712 29.5865 50.7234 30.3385 51.6509 30.3385Z" fill="white"/>
<path d="M74.9983 70.1465H73.3186V68.4668C73.3186 67.5393 72.5664 66.7871 71.6389 66.7871C70.7114 66.7871 69.9592 67.5393 69.9592 68.4668V70.1465H68.2795C67.352 70.1465 66.5999 70.8986 66.5999 71.8262C66.5999 72.7537 67.352 73.5059 68.2795 73.5059H69.9592V75.1855C69.9592 76.1131 70.7114 76.8652 71.6389 76.8652C72.5664 76.8652 73.3186 76.1131 73.3186 75.1855V73.5059H74.9983C75.9258 73.5059 76.678 72.7537 76.678 71.8262C76.678 70.8986 75.926 70.1465 74.9983 70.1465Z" fill="white"/>
<path d="M65.5029 10.0781C68.2815 10.0781 70.542 7.8176 70.542 5.03906C70.542 2.26052 68.2815 0 65.5029 0C62.7244 0 60.4639 2.26052 60.4639 5.03906C60.4639 7.8176 62.7244 10.0781 65.5029 10.0781ZM65.5029 3.35938C66.4291 3.35938 67.1826 4.11288 67.1826 5.03906C67.1826 5.96524 66.4291 6.71875 65.5029 6.71875C64.5767 6.71875 63.8232 5.96524 63.8232 5.03906C63.8232 4.11288 64.5767 3.35938 65.5029 3.35938Z" fill="white"/>
<path d="M76.0061 29.1626C73.2276 29.1626 70.967 31.4231 70.967 34.2017C70.967 36.9802 73.2276 39.2407 76.0061 39.2407C78.7846 39.2407 81.0452 36.9802 81.0452 34.2017C81.0452 31.4231 78.7845 29.1626 76.0061 29.1626ZM76.0061 35.8813C75.0799 35.8813 74.3264 35.1278 74.3264 34.2017C74.3264 33.2755 75.0799 32.522 76.0061 32.522C76.9323 32.522 77.6858 33.2755 77.6858 34.2017C77.6858 35.1278 76.9323 35.8813 76.0061 35.8813Z" fill="white"/>
<path d="M33.3425 16.061C36.1211 16.061 38.3816 13.8005 38.3816 11.022C38.3816 8.24344 36.1211 5.98291 33.3425 5.98291C30.564 5.98291 28.3035 8.24344 28.3035 11.022C28.3035 13.8005 30.564 16.061 33.3425 16.061ZM33.3425 9.34229C34.2687 9.34229 35.0222 10.0958 35.0222 11.022C35.0222 11.9482 34.2687 12.7017 33.3425 12.7017C32.4163 12.7017 31.6628 11.9482 31.6628 11.022C31.6628 10.096 32.4163 9.34229 33.3425 9.34229Z" fill="white"/>
<path d="M75.4497 49.3926C75.4497 48.4674 74.6952 47.7129 73.77 47.7129C72.8448 47.7129 72.0903 48.4674 72.0903 49.3926C72.0903 50.3177 72.8448 51.0723 73.77 51.0723C74.6952 51.0723 75.4497 50.3176 75.4497 49.3926Z" fill="white"/>
<path d="M56.301 15.9673C57.2262 15.9673 57.9807 15.2128 57.9807 14.2876C57.9807 13.3624 57.2262 12.6079 56.301 12.6079C55.3759 12.6079 54.6213 13.3624 54.6213 14.2876C54.6215 15.2126 55.376 15.9673 56.301 15.9673Z" fill="white"/>
<path d="M78.8088 60.3101C77.8836 60.3101 77.1289 61.0647 77.1289 61.9899C77.1289 62.9151 77.8836 63.6696 78.8088 63.6696C79.7338 63.6696 80.4884 62.9151 80.4884 61.9899C80.4884 61.0647 79.7338 60.3101 78.8088 60.3101Z" fill="white"/>
<path d="M23.3796 5.03906C24.3048 5.03906 25.0593 4.28455 25.0593 3.35937C25.0593 2.4342 24.3048 1.67969 23.3796 1.67969C22.4545 1.67969 21.7 2.4342 21.7 3.35937C21.7 4.28455 22.4545 5.03906 23.3796 5.03906Z" fill="white"/>
</g>
<defs>
<clipPath id="clip0">
<rect width="86" height="86" fill="white"/>
</clipPath>
</defs>
</svg>
