<svg width="60" height="60" viewBox="0 0 60 60" fill="none" xmlns="http://www.w3.org/2000/svg">
<path d="M30 0C13.419 0 0 13.4175 0 30C0 46.5807 13.4175 60 30 60C46.581 60 60 46.5825 60 30C60 13.419 46.5825 0 30 0ZM30 55.8139C15.7662 55.8139 4.18605 44.2339 4.18605 30C4.18605 15.7661 15.7662 4.18605 30 4.18605C44.2339 4.18605 55.8139 15.7661 55.8139 30C55.8139 44.2339 44.2339 55.8139 30 55.8139Z" fill="#E2E2E2"/>
<path d="M29.1125 37.96C27.4539 37.96 26.1113 39.3421 26.1113 41.0005C26.1113 42.6197 27.4145 44.0413 29.1125 44.0413C30.8105 44.0413 32.153 42.6197 32.153 41.0005C32.153 39.3421 30.7709 37.96 29.1125 37.96Z" fill="#E2E2E2"/>
<path d="M29.626 14.938C24.295 14.938 21.8467 18.0972 21.8467 20.2296C21.8467 21.7697 23.1498 22.4805 24.216 22.4805C26.3484 22.4805 25.4797 19.4397 29.5076 19.4397C31.4819 19.4397 33.0616 20.3086 33.0616 22.1251C33.0616 24.2574 30.8502 25.4816 29.5471 26.5872C28.4018 27.5743 26.9013 29.1935 26.9013 32.5896C26.9013 34.643 27.4542 35.2353 29.0732 35.2353C31.008 35.2353 31.403 34.3666 31.403 33.6162C31.403 31.5628 31.4425 30.3781 33.6144 28.6801C34.6806 27.8509 38.0371 25.1655 38.0371 21.4536C38.0371 17.7417 34.6806 14.938 29.626 14.938Z" fill="#E2E2E2"/>
</svg>
