<svg width="18" height="18" viewBox="0 0 18 18" fill="none" xmlns="http://www.w3.org/2000/svg">
<path d="M7.39127 0C3.3092 0 0 3.3092 0 7.39127C0 11.4733 3.3092 14.7825 7.39127 14.7825C11.4733 14.7825 14.7825 11.4733 14.7825 7.39127C14.779 3.31064 11.4719 0.00353495 7.39127 0ZM7.39127 12.2117C4.72904 12.2117 2.57088 10.0535 2.57088 7.39127C2.57088 4.72904 4.72904 2.57088 7.39127 2.57088C10.0535 2.57088 12.2117 4.72904 12.2117 7.39127C12.2081 10.052 10.052 12.2081 7.39127 12.2117Z" fill="#1E1E1E"/>
<path d="M17.6167 15.8045L15.0458 13.2336C14.5435 12.7314 13.7292 12.7314 13.2269 13.2336C12.7246 13.7359 12.7246 14.5503 13.2269 15.0525L15.7978 17.6234C16.3001 18.1257 17.1144 18.1257 17.6167 17.6234C18.119 17.1211 18.119 16.3068 17.6167 15.8045Z" fill="#1E1E1E"/>
</svg>
