<svg width="16" height="14" viewBox="0 0 16 14" fill="none" xmlns="http://www.w3.org/2000/svg">
<path d="M15.7443 6.03377L9.9661 0.255478C9.80115 0.0905358 9.58132 0 9.34692 0C9.11225 0 8.89254 0.0906659 8.7276 0.255478L8.20299 0.780221C8.03818 0.944903 7.94738 1.16487 7.94738 1.3994C7.94738 1.63381 8.03818 1.86119 8.20299 2.02587L11.5739 5.40418H0.864383C0.381525 5.40418 0 5.7822 0 6.26518V7.00703C0 7.49002 0.381525 7.90615 0.864383 7.90615H11.6121L8.20312 11.3033C8.03831 11.4683 7.94751 11.6822 7.94751 11.9168C7.94751 12.1511 8.03831 12.3682 8.20312 12.533L8.72773 13.056C8.89267 13.221 9.11238 13.3108 9.34704 13.3108C9.58145 13.3108 9.80128 13.2198 9.96623 13.0549L15.7444 7.27669C15.9097 7.11123 16.0006 6.89035 16 6.65555C16.0005 6.41998 15.9097 6.19897 15.7443 6.03377Z" fill="#1E1E1E"/>
</svg>
